<?xml version="1.0" encoding="utf-8"?>
<!-- Generator: Adobe Illustrator 25.2.1, SVG Export Plug-In . SVG Version: 6.00 Build 0)  -->
<svg width="286.9" height="72" viewBox="0 0 286.9 72" fill="none" xmlns="http://www.w3.org/2000/svg">
<style type="text/css">
	.st0{fill:#4189C8;}
</style>
<g id="Layer_2_1_">
	<g id="Layer_1-2">
		<g>
			<g>
				<path class="st0" d="M36.5,30c2.4,2.4,3.6,5.8,3.6,10.4v18.5h-5.8V41.1c0-3.1-0.7-5.5-2.2-7c-1.5-1.6-3.6-2.4-6.4-2.4
					c-3.2,0-5.6,0.9-7.5,2.8c-1.8,1.8-2.7,4.5-2.7,7.9V59H9.7V14h5.8v17.4c1.3-1.6,2.9-2.8,4.8-3.6c2.1-0.9,4.3-1.3,6.6-1.3
					C30.9,26.5,34.1,27.7,36.5,30z"/>
				<path class="st0" d="M77.5,44.8H51.4c0.3,2.7,1.6,5.1,3.7,6.8c2.1,1.7,4.8,2.6,7.9,2.6c3.8,0,6.9-1.3,9.3-3.9l3.2,3.7
					c-1.5,1.7-3.3,3-5.4,3.9c-2.3,0.9-4.8,1.4-7.3,1.4c-3.4,0-6.4-0.7-9-2.1c-2.6-1.3-4.7-3.4-6.1-5.9c-1.5-2.6-2.2-5.5-2.2-8.5
					c0-2.9,0.7-5.9,2.1-8.4c1.3-2.4,3.3-4.5,5.8-5.9s5.4-2.1,8.3-2.1c2.9,0,5.7,0.7,8.2,2.1c2.4,1.4,4.3,3.4,5.6,5.8
					c1.4,2.7,2.1,5.6,2,8.6C77.7,43.6,77.6,44.2,77.5,44.8z M54.8,34c-1.9,1.7-3,3.9-3.3,6.7h20.6c-0.2-2.5-1.4-4.9-3.3-6.6
					c-1.9-1.7-4.2-2.6-7-2.6C59,31.4,56.6,32.3,54.8,34z"/>
				<path class="st0" d="M83.2,13.9H89v45h-5.8V13.9z"/>
				<path class="st0" d="M97.7,13.9h5.8v45h-5.8V13.9z"/>
				<path class="st0" d="M117.3,57.2c-2.5-1.4-4.6-3.4-6-5.9c-1.5-2.6-2.2-5.5-2.2-8.5s0.7-5.9,2.2-8.5c1.4-2.5,3.5-4.5,6-5.8
					c2.6-1.4,5.6-2.1,8.6-2.1s5.9,0.7,8.6,2.1c2.5,1.4,4.5,3.4,5.9,5.8c1.5,2.6,2.2,5.5,2.2,8.5s-0.7,5.9-2.2,8.5
					c-1.4,2.5-3.5,4.5-5.9,5.9c-2.6,1.4-5.6,2.2-8.6,2.1C122.9,59.4,119.9,58.6,117.3,57.2z M131.4,52.8c1.6-0.9,3-2.3,3.9-4
					c1-1.8,1.4-3.9,1.4-5.9c0-2.1-0.4-4.1-1.4-5.9c-0.9-1.7-2.2-3-3.9-4c-3.5-1.9-7.6-1.9-11.1,0c-1.6,0.9-3,2.3-3.9,4
					c-1,1.8-1.5,3.9-1.4,5.9c0,2.1,0.5,4.1,1.4,5.9c0.9,1.7,2.2,3.1,3.9,4C123.8,54.7,128,54.7,131.4,52.8z"/>
			</g>
			<g>
				<path class="st0" d="M159.8,58.4c-2.6,0-5.2-0.2-7.8-0.7c-2.4-0.4-4.2-1-5.3-1.7l2.1-9.8h0.9c0.7,1.1,2.2,2,4.5,2.7
					c2.2,0.7,4.5,1.1,6.9,1.1c1.1,0,1.8-0.1,2.1-0.4c0.3-0.3,0.5-0.6,0.5-1c0-0.3-0.2-0.6-0.5-0.7c-0.3-0.2-1.7-0.7-4-1.4
					c-3-0.9-5.2-2.1-6.6-3.5c-1.3-1.4-2.1-3.3-2-5.2c0-1.6,0.3-3.3,1-4.8s1.8-2.9,3.1-3.9c1.5-1.2,3.2-2,5.1-2.5
					c2.1-0.6,4.4-0.9,6.6-0.9c2.2,0,4.5,0.2,6.7,0.6s3.9,0.9,5.1,1.5l-2,9.6h-0.9c-2.3-2.5-5.3-3.7-8.9-3.7c-2.1,0-3.1,0.6-3.1,1.7
					c0,0.4,0.2,0.7,0.6,0.8c0.6,0.3,1.2,0.5,1.8,0.7l2.7,0.9c2.5,0.9,4.3,2,5.6,3.3c1.2,1.3,1.9,3.1,1.9,4.9c0,1.7-0.4,3.4-1,4.9
					c-0.7,1.6-1.7,3-3.1,4.1c-1.5,1.2-3.2,2-5,2.5C164.5,58.1,162.2,58.4,159.8,58.4z"/>
				<path class="st0" d="M208.7,57.5h-13.3l3.6-16.8c0.2-0.7,0.3-1.5,0.3-2.2c0-1.7-0.7-2.5-2.1-2.5c-0.4,0-0.9,0.1-1.2,0.3
					c-0.4,0.2-0.7,0.4-1,0.5l-4.4,20.7h-13.3l9.8-46.1h13.2l-4,18.6c0.9-1.4,2.2-2.5,3.7-3.2c1.6-0.8,3.3-1.2,5.1-1.2
					c2.7,0,4.7,0.7,6,2.2s2,3.6,2,6.4c0,1.8-0.2,3.5-0.6,5.2L208.7,57.5z"/>
				<path class="st0" d="M226.3,57.5h-13l6.6-31.2h13L226.3,57.5z M233.8,23.8h-13.5l2.4-11.4h13.5L233.8,23.8z"/>
				<path class="st0" d="M259.6,20.8h-1.2c-0.6-0.6-1.5-0.9-2.8-0.9c-0.5,0-0.9,0.1-1.3,0.3c-0.3,0.2-0.6,0.4-0.8,0.8
					c-0.2,0.4-0.4,0.8-0.5,1.3s-0.4,1.9-0.9,4.1h5.1l-2.1,9.8h-4.8l-4.6,21.4h-13.3l4.6-21.4h-2.9l2.1-9.8h2.9l0.9-4
					c1.6-7.4,6.3-11.1,14.1-11.1c3,0,5.5,0.3,7.5,1L259.6,20.8z"/>
				<path class="st0" d="M256.2,36.1l2.1-9.8h3l2.2-10.2h13.1l-2.2,10.2h5.2l-2.1,9.8h-5l-1.9,9.1l-0.1,1c0,0.5,0.1,1,0.4,1.5
					s0.9,0.7,1.8,0.7c0.6,0,1.3-0.2,1.8-0.5h0.9l-2,9.4c-1.7,0.5-3.5,0.8-5.2,0.8c-3.8,0-6.7-0.7-8.6-2.2s-2.8-3.6-2.8-6.3
					c0-1.2,0.2-2.3,0.4-3.4l2.1-10L256.2,36.1z"/>
			</g>
		</g>
	</g>
</g>
</svg>
