<?xml version="1.0" encoding="utf-8"?>
<!-- Generator: Adobe Illustrator 27.5.0, SVG Export Plug-In . SVG Version: 6.00 Build 0)  -->
<svg version="1.1" xmlns="http://www.w3.org/2000/svg" xmlns:xlink="http://www.w3.org/1999/xlink" x="0px" y="0px"
	 viewBox="0 0 750 500" style="enable-background:new 0 0 750 500;" xml:space="preserve">
<g id="BACKGROUND">
	<rect style="fill:#FFFFFF;" width="750" height="500"/>
</g>
<g id="OBJECTS">
	<g>
		<g>
			<path style="fill:#EDEDED;" d="M136.212,402.475H82.317c-3.63,0-6.573-2.943-6.573-6.573v-91.359c0-3.63,2.943-6.573,6.573-6.573
				h53.895c3.63,0,6.573,2.943,6.573,6.573v91.359C142.785,399.532,139.842,402.475,136.212,402.475z"/>
			<path style="fill:none;stroke:#DFDFDF;stroke-width:0.9311;stroke-miterlimit:10;" d="M132.707,333.243H85.822
				c-1.694,0-3.067-1.373-3.067-3.067v-17.965c0-1.694,1.373-3.067,3.067-3.067h46.885c1.694,0,3.067,1.373,3.067,3.067v17.965
				C135.774,331.87,134.401,333.243,132.707,333.243z"/>
			<path style="fill:none;stroke:#DFDFDF;stroke-width:0.9311;stroke-miterlimit:10;" d="M132.707,361.286H85.822
				c-1.694,0-3.067-1.373-3.067-3.067v-17.965c0-1.694,1.373-3.067,3.067-3.067h46.885c1.694,0,3.067,1.373,3.067,3.067v17.965
				C135.774,359.913,134.401,361.286,132.707,361.286z"/>
			<path style="fill:#BDBDBD;" d="M112.058,321.467c0,1.543-1.251,2.793-2.793,2.793c-1.543,0-2.793-1.251-2.793-2.793
				c0-1.543,1.251-2.793,2.793-2.793C110.807,318.674,112.058,319.924,112.058,321.467z"/>
			<path style="fill:#BDBDBD;" d="M112.058,349.565c0,1.543-1.251,2.793-2.793,2.793c-1.543,0-2.793-1.251-2.793-2.793
				c0-1.543,1.251-2.793,2.793-2.793C110.807,346.772,112.058,348.022,112.058,349.565z"/>
		</g>
		<g>
			<g>
				<polygon style="fill:#FBA894;" points="389.767,268.341 389.353,272.273 387.698,274.963 387.698,276.204 404.252,276.204 
					402.183,272.894 397.009,270.41 				"/>
				<path style="fill:#24ADB2;" d="M419.492,179.122c-3.58-5.936-11.766-6.959-17.087-2.516c-2.143,1.79-4.272,4.331-5.395,7.828
					c-1.922,5.98-6.784,23.718-9.629,34.201c-1.192,4.391,1.47,8.9,5.889,9.981l0,0c3.516,0.859,7.173-0.715,8.959-3.863
					c5.756-10.147,17.74-31.872,18.681-38.456C421.308,183.503,420.681,181.094,419.492,179.122z"/>
				<path style="fill:#FBA894;" d="M521.474,182.882l6.208-4.656l4.035-5.897l10.743-4.958c0.73-0.337,1.553,0.271,1.426,1.065
					c-0.106,0.667-0.38,1.48-0.995,2.341c-1.552,2.173-4.035,3.104-4.035,3.104l18.933-1.552l-0.621,3.414l-9.312,2.173
					c0,0-2.173,7.139-4.345,9.001c-2.173,1.862-12.726-0.621-12.726-0.621l-2.793,4.345L521.474,182.882z"/>
				<g>
					<polygon style="fill:#FBA894;" points="452.879,388.357 452.879,403.876 443.257,403.566 445.119,388.047 					"/>
					<path style="fill:#464F6A;" d="M437.949,399.227c0.35-0.087,0.659-0.284,0.869-0.577c0.513-0.716,1.686-2.019,3.24-1.674
						c1.19,0.264,1.859,1.272,2.217,2.104c0.288,0.669,1.002,1.045,1.713,0.887l0.007-0.001c0.455-0.101,0.926,0.02,1.29,0.313
						c0.785,0.632,2.364,1.586,4.173,0.928c0.317-0.106,0.597-0.211,0.844-0.314c0.911-0.381,1.937,0.175,2.087,1.151l0.336,2.183
						c0.137,0.894-0.535,1.706-1.439,1.733c-6.106,0.181-26.641,0.712-27.44-0.288C424.937,404.537,432.557,400.562,437.949,399.227
						z"/>
				</g>
				<g>
					<polygon style="fill:#FBA894;" points="420.82,378.113 427.649,392.049 418.872,396.004 413.716,381.249 					"/>
					<path style="fill:#464F6A;" d="M412.196,394.444c0.276-0.232,0.467-0.545,0.527-0.9c0.146-0.869,0.626-2.555,2.173-2.929
						c1.185-0.286,2.229,0.325,2.916,0.914c0.553,0.474,1.36,0.498,1.929,0.043l0.005-0.004c0.364-0.291,0.841-0.389,1.296-0.287
						c0.983,0.222,2.82,0.384,4.156-1.003c0.238-0.234,0.443-0.452,0.619-0.654c0.651-0.743,1.816-0.695,2.38,0.115l1.262,1.812
						c0.517,0.742,0.271,1.767-0.529,2.189c-5.404,2.849-23.61,12.361-24.768,11.815
						C402.848,404.937,407.942,398.014,412.196,394.444z"/>
				</g>
				<g>
					<path style="fill:#464F6A;" d="M422.771,380.597c-5.794,7.035-9.725,3.414-9.725,3.414s-17.382-49.248-17.382-58.766
						c0-9.518,10.76-65.802,10.76-65.802c4.966-9.105,19.037-13.657,25.659-2.897c6.621,10.76-0.828,20.279-0.828,21.52
						l-14.898,46.765c0,0,6.208,9.105,7.035,16.14S422.771,380.597,422.771,380.597z"/>
					<path style="fill:#464F6A;" d="M443.616,390.28c0,0-7.195-57.419-7.27-62.815c-0.075-5.395-5.846-64.295-5.846-64.295
						c2.473-18.509,27.923-12.824,30.621-6.005c2.698,6.819-4.261,55.968-4.523,66.796c0,0,3.063,13.123,3.513,21.497
						c0.45,8.374-6.209,44.821-6.209,44.821S448.506,393.784,443.616,390.28z"/>
					<path style="fill:#24ADB2;" d="M413.693,173.331c0,0-7.91-0.656-11.535,5.902c-3.626,6.557,3.075,81.968,3.075,81.968
						s23.932,7.615,56.647,1.967c0,0,7.132-76.066,6.527-81.312c-0.604-5.246-4.834-8.525-12.086-9.836
						C449.07,170.708,413.693,173.331,413.693,173.331z"/>
				</g>
				<g>
					<path style="fill:#FBA894;" d="M449.767,150.51c0,0,1.539,11.986-1.123,18.217c-2.02,2.742-10.531,0.006-14.59-4.69
						c-4.059-4.696-5.034-12.451-2.95-17.122c2.083-4.671,11.031-4.554,13.802-3.41C447.677,144.65,449.655,148.576,449.767,150.51z
						"/>
					<path style="fill:#FBA894;" d="M441.191,168.12l-1.035,8.277c0,0-0.314,1.829-5.38,4.966c-1.368,0.847-2.457-1.97-3.521-3.551
						c-2.098-3.117-3.621-6.932-3.621-6.932l4.659-13.313L441.191,168.12z"/>
				</g>
				<path style="fill:#24ADB2;" d="M454.534,171.708c0,0,8.691,0.828,12.829,4.139c4.138,3.311,23.589,24.831,23.589,24.831
					s27.728-18.209,32.694-20.692l7.035,9.105c0,0-28.556,28.555-37.66,32.28c-9.105,3.725-44.695-26.072-44.695-26.072
					S437.566,179.985,454.534,171.708z"/>
				<path style="fill:none;stroke:#29456A;stroke-width:0.8301;stroke-miterlimit:10;" d="M490.953,203.161
					c0,0-2.483,3.725-1.242,11.588"/>
				<polyline style="fill:none;stroke:#29456A;stroke-width:0.8301;stroke-miterlimit:10;" points="523.647,179.985 530.682,189.09 
					526.544,193.642 518.267,181.64 				"/>
				
					<line style="fill:none;stroke:#29456A;stroke-width:0.8301;stroke-miterlimit:10;" x1="467.156" y1="192.193" x2="466.536" y2="209.265"/>
				<path style="fill:none;stroke:#29456A;stroke-width:0.8301;stroke-miterlimit:10;" d="M544.132,167.777
					c0,0-0.828,4.345-5.277,6.104c0,0-0.103,4.863-3.828,6.725"/>
				<polyline style="fill:none;stroke:#29456A;stroke-width:0.8301;stroke-miterlimit:10;" points="557.789,172.329 
					557.168,175.743 541.856,179.157 				"/>
				<polyline style="fill:none;stroke:#29456A;stroke-width:0.8301;stroke-miterlimit:10;" points="547.857,177.916 
					546.408,181.227 539.787,182.468 				"/>
				
					<line style="fill:none;stroke:#29456A;stroke-width:0.8301;stroke-miterlimit:10;" x1="539.58" y1="185.158" x2="544.96" y2="184.33"/>
				
					<path style="fill:none;stroke:#29456A;stroke-width:0.8301;stroke-linecap:round;stroke-linejoin:round;stroke-miterlimit:10;" d="
					M427.634,170.673c0,0,2.276,7.656,6.415,10.553l-8.07,5.587l-2.69-13.657L427.634,170.673z"/>
				
					<path style="fill:none;stroke:#29456A;stroke-width:0.8301;stroke-linecap:round;stroke-linejoin:round;stroke-miterlimit:10;" d="
					M441.084,171.294c0,0,0.421,7.516-6.307,10.069l6.307,5.657l2.483-13.036L441.084,171.294z"/>
				
					<path style="fill:none;stroke:#29456A;stroke-width:0.8301;stroke-linecap:round;stroke-linejoin:round;stroke-miterlimit:10;" d="
					M415.012,201.816c0,0,20.485,26.383,43.764,28.245"/>
				
					<path style="fill:none;stroke:#29456A;stroke-width:0.8301;stroke-linecap:round;stroke-linejoin:round;stroke-miterlimit:10;" d="
					M413.15,253.96c0,0,27.624,6.208,42.523,3.725"/>
				<path style="fill:#24ADB2;" d="M399.131,217.788c-5.015-3.335-11.775,0.222-12.302,6.221c-0.198,2.252-0.373,4.78-0.373,6.672
					c0,4.345,1.552,40.04,1.552,40.04h10.553c0,0,4.656-40.971,4.035-47.178C402.352,221.104,401.052,219.066,399.131,217.788z"/>
				
					<path style="fill:none;stroke:#29456A;stroke-width:0.8301;stroke-linecap:round;stroke-linejoin:round;stroke-miterlimit:10;" d="
					M390.181,219.197c0,0,5.897-2.173,11.484,1.552"/>
				
					<path style="fill:none;stroke:#29456A;stroke-width:0.8301;stroke-linecap:round;stroke-linejoin:round;stroke-miterlimit:10;" d="
					M403.838,188.469c0,0-0.931,16.14-1.242,26.072"/>
				
					<polyline style="fill:none;stroke:#29456A;stroke-width:0.8301;stroke-linecap:round;stroke-linejoin:round;stroke-miterlimit:10;" points="
					388.008,270.721 398.561,270.721 399.699,266.479 390.595,266.893 				"/>
			</g>
			<path style="fill:#BA792D;" d="M432.071,143.678c0,0,10.352-4.437,16.431-0.164c3.451,3.451,1.315,6.901-6.244,9.366
				c-3.451,1.15-6.08,0.986-6.08,0.986l1.15,3.779l-1.15,0.493l-2.3-2.629c0,0-1.479,1.314-0.822,2.958
				c0.657,1.643,0.329,2.629,0.329,2.629l-2.958,1.479l-0.657-3.944c0,0-3.779-7.394-2.3-10.68c1.479-3.286,4.601-3.451,4.601-3.451
				"/>
			
				<path style="fill:none;stroke:#29456A;stroke-width:0.8301;stroke-linecap:round;stroke-linejoin:round;stroke-miterlimit:10;" d="
				M435.796,163.122c0,0,0.329,2.629,4.929,5.587"/>
		</g>
		<g>
			<g>
				<path style="fill:#EDEDED;" d="M257.409,206.481H136.472c-1.488,0-2.695-1.207-2.695-2.695v-64.984
					c0-1.488,1.206-2.695,2.695-2.695h120.937c1.488,0,2.695,1.207,2.695,2.695v64.984
					C260.104,205.275,258.897,206.481,257.409,206.481z"/>
				<g>
					<g>
						<rect x="146.969" y="151.43" style="fill:#DFDFDF;" width="5.794" height="45.523"/>
						<rect x="155.245" y="172.122" style="fill:#BDBDBD;" width="5.794" height="24.831"/>
					</g>
					<g>
						<rect x="164.143" y="181.227" style="fill:#DFDFDF;" width="5.794" height="15.726"/>
						<rect x="172.42" y="175.433" style="fill:#BDBDBD;" width="5.794" height="21.52"/>
					</g>
					<g>
						<rect x="181.318" y="157.017" style="fill:#DFDFDF;" width="5.794" height="39.936"/>
						<rect x="189.595" y="164.673" style="fill:#BDBDBD;" width="5.794" height="32.28"/>
					</g>
					<g>
						<rect x="198.492" y="151.43" style="fill:#DFDFDF;" width="5.794" height="45.523"/>
						<rect x="206.769" y="179.571" style="fill:#BDBDBD;" width="5.794" height="17.382"/>
					</g>
					<g>
						<rect x="215.667" y="157.223" style="fill:#DFDFDF;" width="5.794" height="39.729"/>
						<rect x="223.944" y="169.225" style="fill:#BDBDBD;" width="5.794" height="27.728"/>
					</g>
					<g>
						<rect x="232.842" y="159.913" style="fill:#DFDFDF;" width="5.794" height="37.039"/>
						<rect x="241.119" y="153.292" style="fill:#BDBDBD;" width="5.794" height="43.661"/>
					</g>
				</g>
			</g>
			<g>
				<g>
					<path style="fill:#FBA894;" d="M329.035,275.066c0,0,5.277,4.345,12.726-0.931c7.449-5.277,27.314-44.075,27.314-44.075
						l11.174-7.604l-0.931-1.862c0,0-2.483-2.794-4.345-3.104c-1.862-0.31-9.001,2.328-9.001,2.328s4.035-3.104,4.345-5.587l0,0
						c0.127-1.013-0.965-1.729-1.84-1.203c-2.765,1.664-7.338,4.483-8.403,5.548c-1.242,1.552-2.483,8.38-2.483,8.38
						s-24.52,28.245-27.935,35.694C326.242,270.1,329.035,275.066,329.035,275.066z"/>
					<path style="fill:none;stroke:#29456A;stroke-width:0.8301;stroke-miterlimit:10;" d="M369.075,230.061
						c0-0.621,9.777-6.518,9.777-6.518s-0.466-0.776-1.862-0.776c-1.397,0-5.277,2.173-5.277,2.173"/>
					
						<line style="fill:none;stroke:#29456A;stroke-width:0.8301;stroke-miterlimit:10;" x1="371.092" y1="222.766" x2="378.697" y2="220.283"/>
					
						<line style="fill:none;stroke:#29456A;stroke-width:0.8301;stroke-miterlimit:10;" x1="370.316" y1="220.594" x2="376.835" y2="218.421"/>
					<path style="fill:none;stroke:#29456A;stroke-width:0.8301;stroke-miterlimit:10;" d="M370.316,214.231
						c0,0-2.173,4.501-4.345,5.587c0,0,2.017,3.414,0.31,5.742"/>
				</g>
				<path style="fill:#FBA894;" d="M311.511,230.526c0,0,9.001-3.414,13.967,4.345c4.966,7.76,15.83,33.832,15.83,33.832
					s1.552,6.828-5.587,8.691c-7.139,1.862-10.863-5.276-10.863-5.276s-17.692-29.487-17.692-34.142
					C307.166,233.32,311.511,230.526,311.511,230.526z"/>
				<path style="fill:#6C98DF;" d="M317.241,228.509c0,0,6.828,1.862,9.932,7.139c3.104,5.277,7.76,16.45,7.76,16.45
					s-13.347,11.795-18.623,12.105C311.033,264.203,303.894,236.268,317.241,228.509z"/>
				<g>
					
						<line style="fill:none;stroke:#29456A;stroke-width:1.6268;stroke-linecap:round;stroke-linejoin:round;stroke-miterlimit:10;" x1="309.384" y1="330.099" x2="316.93" y2="402.634"/>
					
						<line style="fill:none;stroke:#29456A;stroke-width:1.6268;stroke-linecap:round;stroke-linejoin:round;stroke-miterlimit:10;" x1="291.202" y1="329.907" x2="297.709" y2="402.635"/>
					
						<line style="fill:none;stroke:#29456A;stroke-width:1.6268;stroke-linecap:round;stroke-linejoin:round;stroke-miterlimit:10;" x1="258.283" y1="329.907" x2="251.776" y2="402.635"/>
					<g>
						<path style="fill:#FFC918;" d="M296.485,331.056h-43.733c-1.874,0-3.46-1.385-3.711-3.243l-8.938-66.003
							c-0.304-2.248,1.443-4.248,3.711-4.248h43.733c1.874,0,3.46,1.385,3.711,3.243l8.938,66.003
							C300.5,329.055,298.753,331.056,296.485,331.056z"/>
						<path style="fill:#FFC918;" d="M319.234,331.097h-51.675v-5.933h45.742C316.578,325.164,319.234,327.821,319.234,331.097
							L319.234,331.097z"/>
					</g>
				</g>
				<path style="fill:#BA7F79;" d="M309.688,386.288l-1.242,7.242l3.104,4.345c0,0,10.139,6.001,9.932,6.622
					c-0.207,0.621-25.245-0.207-25.245-0.207l4.552-17.175L309.688,386.288z"/>
				<path style="fill:#BA7F79;" d="M368.764,386.288l2.483,7.967l3.414,3.621c0,0,10.139,6.001,9.932,6.622
					c-0.207,0.621-25.245-0.207-25.245-0.207l0.517-17.175L368.764,386.288z"/>
				<g>
					<path style="fill:#464F6A;" d="M307.665,293.846c0,0,24.556,4.823,45.592,13.68c4.184,1.761,7.238,5.459,8.108,9.914
						c2.784,14.248,8.723,47.592,8.31,70.769H359.43l-18.873-63.358c0,0-7.01,2.966-30.196,0.27
						c-23.186-2.696-28.039-18.873-28.039-18.873L307.665,293.846z"/>
					<path style="fill:#505E83;" d="M273.166,291.827c0,0-13.087,22.509-0.55,30.193c12.537,7.684,33.971,3.64,33.971,3.64
						l-8.088,63.088l12.537,0.404c0,0,14.931-50.25,18.905-71.147c0.882-4.635-1.402-9.291-5.611-11.424l-23-11.658L273.166,291.827
						z"/>
				</g>
				
					<line style="fill:none;stroke:#29456A;stroke-width:0.8301;stroke-miterlimit:10;" x1="311.55" y1="397.875" x2="307.929" y2="400.617"/>
				
					<line style="fill:none;stroke:#29456A;stroke-width:0.8301;stroke-miterlimit:10;" x1="309.481" y1="394.875" x2="305.756" y2="397.048"/>
				
					<line style="fill:none;stroke:#29456A;stroke-width:0.8301;stroke-miterlimit:10;" x1="374.662" y1="397.875" x2="372.799" y2="401.238"/>
				
					<line style="fill:none;stroke:#29456A;stroke-width:0.8301;stroke-miterlimit:10;" x1="371.247" y1="394.254" x2="368.764" y2="398.289"/>
				<path style="fill:#6C98DF;" d="M319.62,229.233c0,0,4.345,1.552,5.587,5.276c1.242,3.725-10.863,45.627-10.863,45.627
					s1.345,12.002,0.414,14.485c-0.931,2.483-7.553,2.586-7.553,2.586s-20.879-0.591-31.412-1.773
					c-3.226-0.362-5.716-2.993-5.917-6.234c-0.479-7.736-1.159-21.17-1.159-21.17s0.621-33.211,4.656-41.592
					c3.414-1.862,15.519-1.552,15.519-1.552S314.654,227.06,319.62,229.233z"/>
				<path style="fill:none;stroke:#29456A;stroke-width:0.8301;stroke-miterlimit:10;" d="M306.587,325.66
					c0,0,0.722-7.761,9.723-10.554"/>
				<path style="fill:#FBA894;" d="M280.926,226.957c0,0-9.001-3.414-13.967,4.345c-4.966,7.76-15.83,33.832-15.83,33.832
					s-1.552,6.828,5.587,8.691c7.139,1.862,10.863-5.277,10.863-5.277s17.692-29.486,17.692-34.142
					C285.271,229.75,280.926,226.957,280.926,226.957z"/>
				<path style="fill:#FBA894;" d="M252.68,262.961c0,0,4.966-2.483,13.347-1.242c8.38,1.242,37.557,9.622,37.557,9.622
					s11.174-5.277,13.347-5.277s12.726,5.587,12.726,5.587l-1.241,4.656l-9.001-0.31c0,0-8.38,4.966-12.105,4.345
					c-3.725-0.621-3.725-0.621-3.725-0.621s-31.841,0.501-47.077-5.03c-3.945-1.432-6.275-5.669-5.135-9.708
					C251.67,263.928,252.137,263.179,252.68,262.961z"/>
				<path style="fill:#6C98DF;" d="M280.926,225.301c0,0-9.105-1.552-14.071,4.966c-4.966,6.518-10.139,19.658-10.139,19.658
					s11.174,6.829,19.865,7.139c0,0,11.174-19.554,11.174-23.9C287.754,228.819,282.167,225.612,280.926,225.301z"/>
				<path style="fill:none;stroke:#29456A;stroke-width:0.8301;stroke-miterlimit:10;" d="M270.579,262.754
					c0,0-6.621-0.828-11.588,3.518"/>
				
					<line style="fill:none;stroke:#29456A;stroke-width:0.8301;stroke-miterlimit:10;" x1="316.93" y1="266.065" x2="315.999" y2="275.687"/>
				
					<line style="fill:none;stroke:#29456A;stroke-width:0.8301;stroke-miterlimit:10;" x1="316.62" y1="268.083" x2="326.707" y2="272.118"/>
				
					<line style="fill:none;stroke:#29456A;stroke-width:0.8301;stroke-miterlimit:10;" x1="316.93" y1="271.186" x2="325.155" y2="273.98"/>
				
					<line style="fill:none;stroke:#29456A;stroke-width:0.8301;stroke-miterlimit:10;" x1="316.309" y1="273.98" x2="322.827" y2="275.377"/>
				<path style="fill:none;stroke:#29456A;stroke-width:0.8301;stroke-miterlimit:10;" d="M275.132,256.961
					c0,0,8.277-16.14,8.898-21.313"/>
				<path style="fill:#FBA894;" d="M314.258,202.388c0,0-0.29,12.081-3.862,17.839c-2.411,2.405-10.411-1.585-13.714-6.84
					c-3.303-5.256-3.095-13.069-0.329-17.371c2.765-4.303,11.592-2.835,14.159-1.285
					C313.078,196.279,314.44,200.459,314.258,202.388z"/>
				<path style="fill:#FBA894;" d="M304.929,218.473l-1.035,8.277c0,0,1.035,4.759-5.38,4.966c-6.415,0.207-8.898-6.415-8.898-6.415
					l6.415-17.382L304.929,218.473z"/>
				<path style="fill:#414D75;" d="M292.306,199.022c0,0,1.035-5.587,6.001-7.863c4.966-2.276,11.174-0.414,12.415-0.621
					c1.241-0.207,3.311-3.518,4.759-2.276c1.449,1.242,0.828,3.518,0.828,3.518s2.276-2.483,3.725-0.828
					c1.448,1.655-2.483,5.38-2.483,5.38s2.483-1.449,3.104-0.207c0.621,1.241-2.654,7.146-6.19,6.056
					c-3.536-1.09-9.95-3.987-12.227-3.78c-2.276,0.207-3.518,2.483-3.518,2.483v6.622l-1.862,0.621v-4.138
					c0,0-1.811-0.569-2.224,1.5c-0.414,2.069,0.776,4.915,0.776,4.915l-1.655,4.138c0,0-4.966-8.07-4.345-11.381
					C290.03,199.85,292.306,199.022,292.306,199.022z"/>
				<g>
					<path style="fill:none;stroke:#29456A;stroke-width:0.8301;stroke-miterlimit:10;" d="M308.653,207.195
						c0,1.886-1.529,3.414-3.414,3.414c-1.886,0-3.414-1.529-3.414-3.414c0-1.886,1.529-3.414,3.414-3.414
						C307.125,203.781,308.653,205.31,308.653,207.195z"/>
					<path style="fill:none;stroke:#29456A;stroke-width:0.8301;stroke-miterlimit:10;" d="M317.758,207.195
						c0,1.886-1.529,3.414-3.414,3.414c-1.886,0-3.414-1.529-3.414-3.414c0-1.886,1.529-3.414,3.414-3.414
						C316.229,203.781,317.758,205.31,317.758,207.195z"/>
				</g>
				
					<line style="fill:none;stroke:#29456A;stroke-width:0.8301;stroke-miterlimit:10;" x1="308.653" y1="207.195" x2="310.929" y2="207.195"/>
				<path style="fill:none;stroke:#29456A;stroke-width:0.8301;stroke-miterlimit:10;" d="M289.616,225.301
					c0,0,2.276,7.863,10.967,6.415"/>
				<g>
					<path style="fill:#DFDFDF;" d="M374.225,275.997h-51.45c-1.45,0-2.568-1.279-2.373-2.716l4.731-34.94
						c0.161-1.188,1.175-2.074,2.373-2.074h51.45c1.45,0,2.568,1.279,2.373,2.716l-4.731,34.94
						C376.437,275.112,375.423,275.997,374.225,275.997z"/>
					<circle style="fill:#BDBDBD;" cx="352.728" cy="258.616" r="5.587"/>
				</g>
				<path style="fill:none;stroke:#29456A;stroke-width:0.8301;stroke-miterlimit:10;" d="M281.236,262.651
					c0,0,19.865,0.931,32.59-11.484"/>
				<path style="fill:none;stroke:#29456A;stroke-width:0.8301;stroke-miterlimit:10;" d="M319.103,239.993
					c0,0,0.621,14.898-0.621,21.727"/>
				
					<path style="fill:none;stroke:#29456A;stroke-width:0.8301;stroke-linecap:round;stroke-linejoin:round;stroke-miterlimit:10;" d="
					M297.99,214.06c0,0,0.219,3.725,5.696,5.696"/>
			</g>
			<g>
				<path style="fill:#DFDFDF;" d="M279.454,275.997h-51.45c-1.45,0-2.568-1.279-2.373-2.716l4.732-34.94
					c0.161-1.188,1.175-2.074,2.373-2.074h51.45c1.45,0,2.568,1.279,2.373,2.716l-4.731,34.94
					C281.666,275.112,280.652,275.997,279.454,275.997z"/>
				<polygon style="fill:#A9C9FC;" points="278.583,270.617 282.881,238.874 233.982,238.874 229.684,270.617 				"/>
			</g>
			<g>
				<path style="fill:#DFDFDF;" d="M469.456,275.997h51.45c1.45,0,2.568-1.279,2.373-2.716l-4.731-34.94
					c-0.161-1.188-1.175-2.074-2.373-2.074h-51.45c-1.45,0-2.568,1.279-2.373,2.716l4.731,34.94
					C467.243,275.112,468.257,275.997,469.456,275.997z"/>
				<polygon style="fill:#A9C9FC;" points="470.327,270.617 466.028,238.874 514.927,238.874 519.226,270.617 				"/>
			</g>
			<rect x="113.628" y="276.127" style="fill:#DFDFDF;" width="491.96" height="6.124"/>
			<g>
				<path style="fill:#EF6164;" d="M551.892,235.958c0,0,6.518,1.862,8.38,7.76c1.862,5.897,6.518,33.832,6.518,33.832l-23.9-0.621
					L551.892,235.958z"/>
				<g>
					<g>
						<path style="fill:#FBA894;" d="M510.922,388.153l1.655,5.792l-7.86,6.826c0,0,5.171,0.827,7.86-0.414
							c2.689-1.241,10.136-1.034,10.136-1.034l-3.103-11.377L510.922,388.153z"/>
						<path style="fill:#414D75;" d="M521.782,395.186c0,0-3.568-0.931-6.516,1.086c-2.948,2.017-4.034,4.809-9.464,4.499
							c-0.776-0.31,0-0.776,0-0.776s-4.344,0.465-5.12,2.637c-0.155,1.551,19.548,0.931,22.65,0.155
							C524.42,401.547,521.782,395.186,521.782,395.186z"/>
					</g>
					<path style="fill:#FBA894;" d="M499.032,358.041l12.632,32.536l8.31-0.772c0,0,2.025-21.046-4.099-40.568
						C509.75,329.716,499.032,358.041,499.032,358.041z"/>
				</g>
				<g>
					<g>
						<path style="fill:#FBA894;" d="M551,386.912l1.655,5.792l-7.86,6.826c0,0,5.171,0.828,7.86-0.414
							c2.689-1.241,10.136-1.034,10.136-1.034l-3.103-11.377L551,386.912z"/>
						<path style="fill:#414D75;" d="M561.86,393.945c0,0-3.568-0.931-6.516,1.086c-2.948,2.017-4.034,4.809-9.464,4.499
							c-0.776-0.31,0-0.776,0-0.776s-4.344,0.466-5.12,2.637c-0.155,1.551,19.548,0.931,22.65,0.155
							C564.498,400.306,561.86,393.945,561.86,393.945z"/>
					</g>
					<path style="fill:#FBA894;" d="M539.11,356.8l12.632,32.536l8.427-0.72c0,0,1.908-21.098-4.216-40.62
						C549.828,328.474,539.11,356.8,539.11,356.8z"/>
				</g>
				<path style="fill:#6C98DF;" d="M521.505,292.517c0,0-25.752,6.227-33.407,20.007c-7.273,14.546,7.655,48.613,10.718,49.761
					c3.062,1.148,47.149,8.959,62.077-5.587c-0.766-8.038-10.253-27.728-9.105-27.728c1.148,0,8.632-7.675,9.015-17.627
					c0.383-9.952-4.211-16.842-4.211-16.842S527.375,291.681,521.505,292.517z"/>
				<path style="fill:#FBA894;" d="M526.109,202.251c0,0-3.655,11.427-1.531,17.799c1.18,2.596,2.979,1.448,3.923,2.392
					c0.944,0.944-1.7,15.621-1.7,15.621l14.631,0.708c0,0,6.608-20.059,5.9-27.611C546.624,203.609,531.772,197.295,526.109,202.251
					z"/>
				<path style="fill:#EF6164;" d="M517.99,247.401c0,0,2.344,25.194,7.617,32.811c0,0-4.101,8.203-4.101,12.304
					c0,0,23.437,3.516,40.428,1.758c-9.961-38.866-8.789-49.217-8.789-49.217L517.99,247.401z"/>
				<path style="fill:#EF6164;" d="M524.057,237.467c0,0,0.383-3.445,5.359-3.445c4.976,0,21.053,0,24.498,3.062
					c3.445,3.062-0.383,22.967-0.383,22.967l-31.005-3.828L524.057,237.467z"/>
				<g>
					<path style="fill:#FBA894;" d="M474.049,259.36c0,0,27.094,24.188,42.139,21.528c10.06-4.403,18.586-35.938,16.137-40.753
						c-2.448-4.815-7.069-5.139-7.069-5.139s-4.337-0.397-7.571,4.67c-3.234,5.067-9.434,23.299-9.434,23.299
						s-25.391-14.039-34.641-15.894l-10.989-4.532c0,0-1.148,2.584,0.861,4.306c2.01,1.723,6.603,2.871,6.603,2.871l-15.215,2.297
						c0,0,3.445,5.742,6.316,7.177C464.056,260.625,474.049,259.36,474.049,259.36z"/>
				</g>
				<path style="fill:#EF6164;" d="M528.613,234.406c0,0-7.863-2.069-12.622,6.001c-4.759,8.07-8.277,21.934-8.277,21.934
					s-11.174-6.208-13.864-7.449c0,0-7.449,9.311-5.794,16.347c0,0,18.83,13.657,28.555,10.553
					c7.863-3.518,16.347-27.935,16.347-27.935S539.166,238.13,528.613,234.406z"/>
				<path style="fill:none;stroke:#29456A;stroke-width:0.8301;stroke-miterlimit:10;" d="M508.334,265.237
					c0,0,0.207,5.794,2.897,9.725"/>
				
					<line style="fill:none;stroke:#29456A;stroke-width:0.8301;stroke-miterlimit:10;" x1="456.759" y1="254.581" x2="464.363" y2="253.65"/>
				
					<line style="fill:none;stroke:#29456A;stroke-width:0.8301;stroke-miterlimit:10;" x1="458.88" y1="257.167" x2="464.984" y2="256.443"/>
				
					<line style="fill:none;stroke:#29456A;stroke-width:0.8301;stroke-miterlimit:10;" x1="461.88" y1="259.34" x2="466.639" y2="258.202"/>
				
					<line style="fill:none;stroke:#29456A;stroke-width:0.8301;stroke-miterlimit:10;" x1="471.191" y1="249.615" x2="454.87" y2="252.012"/>
				<path style="fill:none;stroke:#29456A;stroke-width:0.8301;stroke-miterlimit:10;" d="M474.049,259.36
					c0,0-0.374-3.227,0.557-4.934"/>
				<path style="fill:#EF6164;" d="M525.256,234.996c0,0,0.046-6.384,2.736-6.798c2.69-0.414,17.588,1.448,18.623,3.518
					c0.828,1.862,0,6.001,0,6.001L525.256,234.996z"/>
				<path style="fill:#6C98DF;" d="M524.578,201.868c0,0,0.01,0.393,0.088,1.08c0.297,2.637,1.581,9.61,7.047,15.38l-1.914,12.249
					c0,0,20.287,5.359,30.239-2.68c-1.148-8.038-3.445-22.584-13.014-29.091C537.454,192.299,527.012,194.978,524.578,201.868z"/>
				<path style="fill:none;stroke:#29456A;stroke-width:0.8301;stroke-miterlimit:10;" d="M533.268,248.684
					c0,0-5.587,17.692-9.312,23.9"/>
				<path style="fill:none;stroke:#29456A;stroke-width:0.8301;stroke-miterlimit:10;" d="M531.712,218.328"/>
				<path style="fill:none;stroke:#29456A;stroke-width:0.8301;stroke-miterlimit:10;" d="M525.607,280.212
					c0,0-3.76,9.58-4.101,12.304c-0.342,2.725-0.135,0.655-0.135,0.655h4.552"/>
				<path style="fill:none;stroke:#29456A;stroke-width:0.8301;stroke-miterlimit:10;" d="M525.256,234.996
					c0,0,11.84-1.418,18.255-0.176"/>
			</g>
			<g>
				
					<line style="fill:none;stroke:#29456A;stroke-width:1.6268;stroke-linecap:round;stroke-linejoin:round;stroke-miterlimit:10;" x1="513.72" y1="330.099" x2="508.746" y2="399.323"/>
				
					<line style="fill:none;stroke:#29456A;stroke-width:1.6268;stroke-linecap:round;stroke-linejoin:round;stroke-miterlimit:10;" x1="531.902" y1="329.907" x2="525.395" y2="402.635"/>
				
					<line style="fill:none;stroke:#29456A;stroke-width:1.6268;stroke-linecap:round;stroke-linejoin:round;stroke-miterlimit:10;" x1="564.821" y1="329.907" x2="571.328" y2="402.635"/>
				<g>
					<path style="fill:#FFC918;" d="M526.619,331.056h43.733c1.874,0,3.46-1.385,3.711-3.243l8.938-66.003
						c0.304-2.248-1.443-4.248-3.711-4.248h-43.733c-1.874,0-3.46,1.385-3.711,3.243l-8.938,66.003
						C522.603,329.055,524.351,331.056,526.619,331.056z"/>
					<path style="fill:#FFC918;" d="M503.869,331.097h51.675v-5.933h-45.742C506.526,325.164,503.869,327.821,503.869,331.097
						L503.869,331.097z"/>
				</g>
			</g>
			<rect x="204.571" y="272.687" style="fill:#DFDFDF;" width="45.109" height="4.966"/>
			<g>
				<g>
					<path style="fill:#FBA894;" d="M179.526,388.153l-1.655,5.792l7.861,6.826c0,0-5.171,0.827-7.861-0.414
						s-10.136-1.034-10.136-1.034l3.103-11.377L179.526,388.153z"/>
					<path style="fill:#414D75;" d="M168.666,395.186c0,0,3.568-0.931,6.516,1.086c2.948,2.017,4.034,4.809,9.464,4.499
						c0.776-0.31,0-0.776,0-0.776s4.344,0.465,5.12,2.637c0.155,1.551-19.548,0.931-22.65,0.155
						C166.029,401.547,168.666,395.186,168.666,395.186z"/>
				</g>
				<path style="fill:#24ADB2;" d="M200.598,310.298c-3.005-3.005-8.778-5.881-15.124-8.376c-0.475,2.091-1.139,4.818-1.941,7.851
					c1.675,5.804-0.067,11.371-4.258,14.188c-1.603,4.646-3.352,8.909-5.108,11.807c-1.564,4.749-3.395,11.237-3.775,16.568
					c-0.689,9.652-1.888,34.728-1.888,36.107c7.584,2.068,11.563,1.18,11.563,1.18S208.181,319.95,200.598,310.298z"/>
				<g>
					<g>
						<path style="fill:#FBA894;" d="M216.272,388.153l-1.655,5.792l7.861,6.826c0,0-5.171,0.827-7.861-0.414
							s-10.136-1.034-10.136-1.034l3.103-11.377L216.272,388.153z"/>
						<path style="fill:#414D75;" d="M205.412,395.186c0,0,3.568-0.931,6.516,1.086c2.948,2.017,4.034,4.809,9.464,4.499
							c0.776-0.31,0-0.776,0-0.776s4.344,0.465,5.12,2.637c0.155,1.551-19.548,0.931-22.65,0.155
							C202.775,401.547,205.412,395.186,205.412,395.186z"/>
					</g>
					<path style="fill:#24ADB2;" d="M195.188,293.52c0,0,33.576,7.815,42.539,16.778c7.584,9.652-20.53,79.324-20.53,79.324
						s-3.98,0.888-11.564-1.18c0-1.379,1.199-26.454,1.888-36.106c0.689-9.652,6.136-23.127,6.136-23.127s-4.679-1.905-12.263-2.595
						c-7.584-0.689-28.957,0.689-40.678-8.963c-11.721-9.652-6.205-24.131-6.205-24.131S186.225,290.762,195.188,293.52z"/>
					<g>
						<path style="fill:#FBA894;" d="M188.981,202.251c0,0,3.655,11.427,1.531,17.799c-1.18,2.596-2.98,1.448-3.924,2.392
							c-0.944,0.944,1.7,15.621,1.7,15.621l-14.631,0.708c0,0-6.608-20.059-5.9-27.611
							C168.466,203.609,183.317,197.295,188.981,202.251z"/>
						<path style="fill:#FF725E;" d="M197.1,247.401c0,0-2.344,25.194-7.617,32.811c0,0,4.102,8.203,4.102,12.304
							c0,0-23.437,3.516-40.428,1.758c9.961-38.866,8.789-49.217,8.789-49.217L197.1,247.401z"/>
						<g>
							<path style="fill:#FBA894;" d="M189.068,230.785c0,0,4.337-0.397,7.571,4.67c3.234,5.067,9.434,23.299,9.434,23.299
								s25.391-14.039,34.641-15.894c0,0,15.143-1.247,15.986,0.18c0.843,1.427,2.569,8.828-3.624,10.563
								c-5.975,0.883-12.8,1.547-12.8,1.547s-27.094,24.188-42.139,21.528c-10.06-4.403-18.586-35.938-16.137-40.753
								C184.447,231.109,189.068,230.785,189.068,230.785z"/>
							
								<line style="fill:none;stroke:#29456A;stroke-width:0.8301;stroke-miterlimit:10;" x1="247.844" y1="244.542" x2="257.259" y2="244.393"/>
							
								<line style="fill:none;stroke:#29456A;stroke-width:0.8301;stroke-miterlimit:10;" x1="248.999" y1="247.108" x2="257.67" y2="246.717"/>
							
								<line style="fill:none;stroke:#29456A;stroke-width:0.8301;stroke-miterlimit:10;" x1="250.309" y1="249.462" x2="257.343" y2="249.557"/>
							
								<line style="fill:none;stroke:#29456A;stroke-width:0.8301;stroke-miterlimit:10;" x1="255.954" y1="251.822" x2="251.595" y2="251.91"/>
							<path style="fill:none;stroke:#29456A;stroke-width:0.8301;stroke-miterlimit:10;" d="M206.341,261.243
								c0,0-0.325,5.966-3.616,9.355"/>
							<path style="fill:#FF725E;" d="M187.259,230.385c0,0,3.828-1.34,7.464,1.34c3.636,2.679,7.273,12.249,7.847,13.014
								c0.383,0.766-9.569,8.038-18.947,7.656C174.244,251.629,187.259,230.385,187.259,230.385z"/>
						</g>
						<path style="fill:#414D75;" d="M174.02,191.359c0,0,11.434-0.817,15.245,7.623c3.539,8.167-8.984,11.706-8.167,19.601
							c0.817,7.895,9.529,8.44,7.895,17.968c-1.633,9.529-5.717,11.162-1.089,22.324c4.628,11.162,4.356,20.69-11.706,26.135
							c-16.062,5.445-30.763-2.178-34.303-18.24c-3.539-16.062,14.398-30.526,16.303-43.049c1.906-12.523,0.712-17.161,3.186-23.009
							C163.997,194.538,169.392,191.903,174.02,191.359z"/>
					</g>
					<path style="fill:none;stroke:#29456A;stroke-width:0.8301;stroke-miterlimit:10;" d="M205.633,388.441
						c0,0,4.956,0.944,11.564,1.18"/>
					<path style="fill:none;stroke:#29456A;stroke-width:0.8301;stroke-miterlimit:10;" d="M213.656,329.208
						c0,0,9.676-0.354,14.631-9.912"/>
				</g>
				
					<line style="fill:none;stroke:#29456A;stroke-width:1.6268;stroke-linecap:round;stroke-linejoin:round;stroke-miterlimit:10;" x1="199.507" y1="330.099" x2="204.482" y2="399.323"/>
				
					<line style="fill:none;stroke:#29456A;stroke-width:1.6268;stroke-linecap:round;stroke-linejoin:round;stroke-miterlimit:10;" x1="181.326" y1="329.907" x2="187.833" y2="402.635"/>
				
					<line style="fill:none;stroke:#29456A;stroke-width:1.6268;stroke-linecap:round;stroke-linejoin:round;stroke-miterlimit:10;" x1="148.407" y1="329.907" x2="141.9" y2="402.635"/>
				<g>
					<path style="fill:#FFC918;" d="M186.608,331.056h-43.733c-1.874,0-3.46-1.385-3.711-3.243l-8.938-66.003
						c-0.304-2.248,1.443-4.248,3.711-4.248h43.733c1.874,0,3.46,1.385,3.711,3.243l8.938,66.003
						C190.624,329.055,188.877,331.056,186.608,331.056z"/>
					<path style="fill:#FFC918;" d="M209.358,331.097h-51.675v-5.933h45.742C206.702,325.164,209.358,327.821,209.358,331.097
						L209.358,331.097z"/>
				</g>
				<path style="fill:none;stroke:#29456A;stroke-width:0.4067;stroke-miterlimit:10;" d="M190.895,302.826l39.685,13.228
					c1.41,0.47,2.204,1.962,1.807,3.394l-18.812,67.78"/>
			</g>
			<g>
				<rect x="266.027" y="136.945" style="fill:#EDEDED;" width="31.659" height="44.695"/>
				<rect x="270.993" y="145.325" style="fill:#DFDFDF;" width="21.727" height="2.483"/>
				<rect x="270.993" y="149.981" style="fill:#DFDFDF;" width="9.311" height="2.483"/>
			</g>
		</g>
		<g>
			
				<line style="fill:none;stroke:#EDEDED;stroke-width:0.9311;stroke-miterlimit:10;" x1="336.659" y1="115.909" x2="336.659" y2="90.275"/>
			<polygon style="fill:#EDEDED;" points="340.931,120.4 341.369,120.4 341.369,112.951 332.606,112.951 332.606,120.4 
				333.044,120.4 304.124,135.298 336.987,135.298 369.85,135.298 			"/>
		</g>
		<g>
			
				<line style="fill:none;stroke:#EDEDED;stroke-width:0.9311;stroke-miterlimit:10;" x1="418.245" y1="115.909" x2="418.245" y2="90.275"/>
			<polygon style="fill:#EDEDED;" points="422.518,120.4 422.956,120.4 422.956,112.951 414.192,112.951 414.192,120.4 
				414.63,120.4 385.711,135.298 418.574,135.298 451.437,135.298 			"/>
		</g>
		<g>
			<path style="fill:#EDEDED;" d="M504.259,126.775l-16.437,18.812v-25.005c-14.256,0-25.726,11.93-24.97,26.351
				c0.662,12.621,11.001,22.961,23.623,23.623c14.421,0.756,26.351-10.714,26.351-24.969
				C512.827,138.077,509.5,131.358,504.259,126.775z"/>
			<path style="fill:none;stroke:#DFDFDF;stroke-width:0.9311;stroke-miterlimit:10;" d="M507.4,131.17l-16.437,18.811v-25.005
				c-14.256,0-25.726,11.93-24.97,26.351c0.662,12.621,11.001,22.961,23.623,23.623c14.421,0.756,26.351-10.713,26.351-24.97
				C515.968,142.472,512.641,135.753,507.4,131.17z"/>
			<path style="fill:#24ADB2;" d="M506.034,117.743c-3.75-2.846-8.318-4.666-13.297-5.017c-0.955-0.067-1.774,0.686-1.774,1.643
				v18.928c0,1.516,1.879,2.221,2.876,1.08l12.44-14.236C506.906,119.422,506.793,118.32,506.034,117.743z"/>
		</g>
		<g>
			<rect x="326.009" y="202.35" style="fill:#EDEDED;" width="4.171" height="9.347"/>
			<rect x="332.817" y="207.024" style="fill:#EDEDED;" width="4.171" height="4.674"/>
			<rect x="339.624" y="198.04" style="fill:#EDEDED;" width="4.171" height="13.657"/>
			<rect x="346.432" y="190.828" style="fill:#EDEDED;" width="4.171" height="20.869"/>
		</g>
		<g>
			<g>
				<polygon style="fill:#EDEDED;" points="662.565,262.541 583.036,262.541 602.754,135.209 682.283,135.209 				"/>
				<rect x="597.916" y="261.243" style="fill:#EDEDED;" width="4.51" height="142.349"/>
				<rect x="650.225" y="261.243" style="fill:#EDEDED;" width="4.51" height="142.349"/>
			</g>
			<polygon style="fill:none;stroke:#DFDFDF;stroke-width:0.9311;stroke-miterlimit:10;" points="611.654,146.567 672.36,145.325 
				670.007,157.223 609.301,157.567 			"/>
			<polygon style="fill:none;stroke:#DFDFDF;stroke-width:0.9311;stroke-miterlimit:10;" points="609.301,162.574 650.225,163.122 
				648.595,171.294 605.588,171.708 			"/>
			<polyline style="fill:none;stroke:#24ADB2;stroke-width:2;stroke-miterlimit:10;" points="597.916,210.61 609.301,200.49 
				616.36,203.781 625,187.984 640.831,195.088 652.479,181.64 658.713,185.158 665.772,175.743 			"/>
		</g>
		<g>
			<path style="fill:none;stroke:#DFDFDF;stroke-width:0.9311;stroke-miterlimit:10;" d="M111.127,218.266
				c0,1.286-1.042,2.328-2.328,2.328c-1.286,0-2.328-1.042-2.328-2.328c0-1.286,1.042-2.328,2.328-2.328
				C110.085,215.938,111.127,216.98,111.127,218.266z"/>
			<circle style="fill:none;stroke:#DFDFDF;stroke-width:0.9311;stroke-miterlimit:10;" cx="125" cy="218.266" r="2.328"/>
			<path style="fill:none;stroke:#DFDFDF;stroke-width:0.9311;stroke-miterlimit:10;" d="M143.529,218.266
				c0,1.286-1.042,2.328-2.328,2.328c-1.286,0-2.328-1.042-2.328-2.328c0-1.286,1.042-2.328,2.328-2.328
				C142.486,215.938,143.529,216.98,143.529,218.266z"/>
		</g>
	</g>
</g>
</svg>
