<svg width="131" height="61" viewBox="0 0 131 61" fill="none" xmlns="http://www.w3.org/2000/svg">
<path d="M15.46 16.13V27C17.9566 27.0027 20.3522 26.0141 22.1204 24.2516C23.8885 22.489 24.8847 20.0966 24.89 17.6V16.13H15.46Z" fill="#B0B0B0"/>
<path d="M24.89 38.45V27.6C23.6543 27.5987 22.4304 27.8408 21.2882 28.3125C20.146 28.7842 19.1079 29.4762 18.2332 30.3491C17.3585 31.2219 16.6642 32.2585 16.1901 33.3997C15.716 34.5409 15.4713 35.7643 15.47 37V38.46L24.89 38.45Z" fill="#B0B0B0"/>
<path d="M12.25 38.45C9.66923 37.935 7.34668 36.5415 5.6778 34.5068C4.00891 32.472 3.09686 29.9217 3.09686 27.29C3.09686 24.6584 4.00891 22.108 5.6778 20.0733C7.34668 18.0385 9.66923 16.645 12.25 16.13V38.45Z" fill="#999999"/>
<path d="M40.93 36.29C39.5705 36.359 38.2117 36.1429 36.9407 35.6555C35.6697 35.1681 34.5148 34.4203 33.55 33.46C32.7525 32.6245 32.1282 31.6395 31.7128 30.5617C31.2975 29.4839 31.0995 28.3346 31.13 27.18C31.0864 24.6868 32.032 22.2778 33.76 20.48C34.7841 19.4359 36.0173 18.62 37.3787 18.0858C38.7402 17.5515 40.1991 17.311 41.66 17.38C43.5 17.3418 45.3229 17.7393 46.98 18.54C47.0141 18.5558 47.0427 18.5813 47.0623 18.6133C47.0818 18.6454 47.0915 18.6825 47.09 18.72V22.59C47.091 22.6368 47.0755 22.6824 47.0462 22.719C47.017 22.7555 46.9759 22.7807 46.93 22.79V22.79C46.8902 22.7899 46.8513 22.7774 46.819 22.754C46.7867 22.7307 46.7626 22.6978 46.75 22.66C45.81 20.31 43.98 19.18 41.16 19.18C40.1679 19.1411 39.1802 19.331 38.2733 19.735C37.3663 20.139 36.5645 20.7464 35.93 21.51C34.7302 22.9604 34.1009 24.7987 34.16 26.68C34.1086 28.6177 34.7624 30.5081 36 32C36.6685 32.7913 37.5086 33.4196 38.4565 33.8372C39.4044 34.2548 40.435 34.4507 41.47 34.41C42.5793 34.3949 43.673 34.1456 44.6794 33.6786C45.6858 33.2116 46.5822 32.5374 47.31 31.7C47.346 31.6902 47.384 31.6902 47.42 31.7H47.49C47.5278 31.7156 47.5603 31.7419 47.5834 31.7756C47.6065 31.8094 47.6192 31.8491 47.62 31.89V33.62C47.6193 33.6728 47.5977 33.7231 47.56 33.76C46.7038 34.6258 45.6763 35.3033 44.5433 35.7493C43.4103 36.1953 42.1966 36.3999 40.98 36.35" fill="#BABABA"/>
<path d="M78.11 19.16C76.9219 19.12 75.7379 19.3208 74.6294 19.7505C73.521 20.1801 72.5109 20.8297 71.6601 21.66C70.8338 22.4732 70.1836 23.4477 69.75 24.5229C69.3165 25.5981 69.1089 26.7511 69.1401 27.91C69.1037 29.0156 69.2913 30.117 69.6917 31.1482C70.0921 32.1793 70.697 33.1188 71.47 33.91C72.2813 34.703 73.2464 35.3215 74.3058 35.7274C75.3652 36.1333 76.4966 36.318 77.6301 36.27C78.8291 36.3143 80.0243 36.1107 81.141 35.672C82.2578 35.2332 83.2719 34.5687 84.12 33.72C84.9233 32.9025 85.5526 31.9308 85.9703 30.8636C86.3879 29.7963 86.5852 28.6555 86.5501 27.51C86.5997 26.4535 86.4392 25.3977 86.0782 24.4035C85.7171 23.4094 85.1625 22.4968 84.4465 21.7184C83.7304 20.94 82.867 20.3114 81.9064 19.8688C80.9458 19.4262 79.907 19.1785 78.85 19.14H78.11V19.16ZM83.9101 28.08C83.983 29.763 83.4067 31.4098 82.3001 32.68C81.7753 33.2501 81.1338 33.7005 80.4195 34.0008C79.7051 34.301 78.9346 34.444 78.1601 34.42C77.2972 34.4498 76.4387 34.2855 75.6478 33.9394C74.8568 33.5933 74.1536 33.074 73.59 32.42C72.379 30.953 71.7523 29.0906 71.83 27.19C71.7507 25.545 72.3096 23.9329 73.3901 22.69C73.926 22.1271 74.5765 21.6859 75.2977 21.3961C76.0188 21.1062 76.7936 20.9746 77.57 21.01C78.4356 20.9815 79.2967 21.1462 80.0906 21.4922C80.8846 21.8381 81.5916 22.3566 82.1601 23.01C83.3474 24.4377 83.9637 26.2546 83.8901 28.11" fill="#BABABA"/>
<path d="M93 21.25C92.9902 21.2072 92.9902 21.1628 93 21.12C93.0488 20.873 93.1699 20.646 93.3479 20.4679C93.526 20.2899 93.753 20.1688 94 20.12V20.12C94.0615 20.1019 94.115 20.0632 94.1514 20.0104C94.1878 19.9576 94.2049 19.8939 94.2 19.83C94.1906 19.7646 94.1583 19.7046 94.1089 19.6606C94.0595 19.6167 93.9962 19.5917 93.9301 19.59H89.32C89.2845 19.5858 89.2486 19.5888 89.2143 19.5986C89.1799 19.6084 89.1478 19.625 89.1199 19.6473C89.092 19.6697 89.0688 19.6973 89.0517 19.7287C89.0345 19.76 89.0238 19.7945 89.0201 19.83C89.0169 19.9022 89.0407 19.9729 89.087 20.0284C89.1332 20.0839 89.1985 20.1201 89.2701 20.13C89.5532 20.1916 89.8067 20.3482 89.9886 20.5737C90.1705 20.7993 90.2698 21.0802 90.2701 21.37V34.16C90.2717 34.4502 90.1731 34.7322 89.9909 34.9581C89.8087 35.184 89.5541 35.3401 89.2701 35.4V35.4C89.2466 35.3992 89.2234 35.4042 89.2024 35.4147C89.1815 35.4252 89.1634 35.4408 89.1501 35.46C89.0989 35.518 89.0704 35.5926 89.07 35.67C89.0726 35.7399 89.1023 35.806 89.1526 35.8545C89.203 35.903 89.2701 35.9301 89.34 35.93H93.9301C94.0027 35.9301 94.0723 35.9019 94.1245 35.8516C94.1768 35.8012 94.2074 35.7325 94.21 35.66C94.2133 35.601 94.1948 35.5429 94.1579 35.4968C94.121 35.4507 94.0683 35.4198 94.01 35.41V35.41C93.7269 35.3484 93.4733 35.1918 93.2914 34.9663C93.1095 34.7407 93.0103 34.4598 93.01 34.17V21.25" fill="#BABABA"/>
<path d="M111.43 31.93C111.377 31.9115 111.32 31.9082 111.265 31.9206C111.21 31.933 111.16 31.9605 111.12 32C110.48 32.7377 109.691 33.3319 108.805 33.7437C107.919 34.1556 106.957 34.3758 105.98 34.39C105.07 34.4249 104.164 34.2521 103.33 33.8848C102.497 33.5175 101.758 32.9653 101.17 32.27C100.088 30.9659 99.5163 29.3138 99.5601 27.62C99.5041 25.9619 100.055 24.3405 101.11 23.06C101.672 22.3967 102.38 21.8715 103.177 21.5247C103.975 21.178 104.841 21.019 105.71 21.06C108.21 21.06 109.82 22.06 110.64 24.06C110.666 24.1185 110.71 24.167 110.766 24.1977C110.822 24.2285 110.887 24.2398 110.95 24.23C111.012 24.2165 111.067 24.1824 111.107 24.1334C111.147 24.0843 111.169 24.0232 111.17 23.96V20.45C111.17 20.4 111.155 20.3511 111.129 20.3088C111.102 20.2664 111.065 20.2322 111.02 20.21C109.535 19.4892 107.901 19.1294 106.25 19.16C104.93 19.102 103.613 19.3232 102.384 19.8091C101.155 20.295 100.043 21.0348 99.12 21.98C98.342 22.7905 97.7313 23.7465 97.3229 24.7931C96.9145 25.8398 96.7165 26.9567 96.74 28.08C96.693 30.188 97.4801 32.2292 98.9301 33.76C99.8014 34.6289 100.845 35.3055 101.994 35.7465C103.143 36.1874 104.371 36.3828 105.6 36.32C106.712 36.3592 107.82 36.166 108.853 35.7528C109.886 35.3395 110.822 34.7153 111.6 33.92C111.625 33.897 111.645 33.8692 111.658 33.8382C111.672 33.8073 111.68 33.7739 111.68 33.74V32.19C111.681 32.1347 111.665 32.0805 111.634 32.0343C111.604 31.988 111.561 31.9517 111.51 31.93" fill="#BABABA"/>
<path d="M127 31.76C126.938 31.7424 126.871 31.7478 126.812 31.7754C126.753 31.8029 126.706 31.8507 126.68 31.91L126.62 32.02C126.387 32.6539 125.965 33.2005 125.41 33.5853C124.855 33.9701 124.195 34.1743 123.52 34.17H118.23V28.42H123.13C124.13 28.42 124.68 28.71 124.8 29.31C124.812 29.3736 124.845 29.4313 124.894 29.4732C124.943 29.5151 125.005 29.5387 125.07 29.54C125.138 29.5349 125.202 29.5043 125.248 29.4542C125.295 29.4041 125.32 29.3383 125.32 29.27V25.86C125.324 25.8245 125.321 25.7887 125.311 25.7544C125.301 25.7201 125.284 25.6882 125.262 25.6603C125.24 25.6324 125.212 25.6092 125.181 25.592C125.15 25.5748 125.115 25.5639 125.08 25.56C125.044 25.5561 125.009 25.5591 124.974 25.5691C124.94 25.579 124.908 25.5956 124.88 25.6179C124.852 25.6402 124.829 25.6677 124.812 25.699C124.795 25.7302 124.784 25.7645 124.78 25.8C124.65 26.41 124.1 26.7 123.08 26.7H118.19V21.11H123.73C124.268 21.1142 124.789 21.3048 125.203 21.6493C125.617 21.9939 125.898 22.4712 126 23V23C126.013 23.0602 126.046 23.1143 126.093 23.1541C126.14 23.1938 126.199 23.217 126.26 23.22V23.22C126.327 23.2149 126.39 23.1839 126.435 23.1335C126.479 23.0831 126.503 23.0173 126.5 22.95V19.85C126.5 19.8145 126.493 19.7794 126.479 19.7467C126.466 19.7139 126.446 19.6842 126.421 19.6591C126.396 19.634 126.366 19.6141 126.333 19.6006C126.301 19.587 126.265 19.58 126.23 19.58H114.51C114.438 19.58 114.37 19.6084 114.319 19.6591C114.268 19.7097 114.24 19.7784 114.24 19.85C114.24 19.9216 114.268 19.9903 114.319 20.0409C114.37 20.0916 114.438 20.12 114.51 20.12V20.12C114.819 20.1542 115.104 20.3003 115.312 20.5306C115.52 20.7609 115.637 21.0595 115.64 21.37V34.17C115.638 34.458 115.537 34.7367 115.355 34.9602C115.174 35.1837 114.921 35.3388 114.64 35.4H114.58C114.544 35.4025 114.51 35.4121 114.478 35.428C114.446 35.444 114.418 35.4661 114.395 35.493C114.371 35.52 114.354 35.5512 114.343 35.5851C114.332 35.6189 114.327 35.6545 114.33 35.69C114.331 35.726 114.34 35.7613 114.355 35.7938C114.371 35.8263 114.393 35.8552 114.42 35.8787C114.447 35.9022 114.479 35.9198 114.514 35.9303C114.548 35.9409 114.584 35.9442 114.62 35.94H126.37C126.435 35.9407 126.498 35.9178 126.548 35.8756C126.598 35.8333 126.63 35.7745 126.64 35.71L127.26 32.1C127.27 32.0342 127.257 31.9668 127.222 31.91C127.187 31.8531 127.133 31.8106 127.07 31.79" fill="#BABABA"/>
<path d="M65.73 21.32C65.732 21.0307 65.8319 20.7507 66.0135 20.5255C66.1951 20.3003 66.4477 20.1433 66.73 20.08V20.08C66.7944 20.0657 66.8513 20.0283 66.89 19.9748C66.9287 19.9214 66.9464 19.8557 66.9399 19.79C66.9355 19.7316 66.9129 19.6761 66.8752 19.6312C66.8376 19.5864 66.7867 19.5545 66.73 19.54H62.08C62.0441 19.5399 62.0086 19.5472 61.9757 19.5615C61.9428 19.5758 61.9131 19.5968 61.8887 19.6231C61.8642 19.6494 61.8456 19.6805 61.8337 19.7144C61.8219 19.7483 61.8172 19.7842 61.8199 19.82C61.8188 19.8785 61.8382 19.9355 61.8748 19.9812C61.9113 20.0269 61.9627 20.0583 62.02 20.07V20.07C62.304 20.1299 62.5586 20.286 62.7408 20.5119C62.923 20.7379 63.0217 21.0198 63.02 21.31V26.69H54.08V21.38V21.32C54.0838 21.0312 54.1844 20.752 54.3657 20.5272C54.547 20.3024 54.7985 20.1449 55.08 20.08V20.08C55.1398 20.0637 55.192 20.0265 55.2268 19.9751C55.2616 19.9238 55.277 19.8617 55.27 19.8C55.2722 19.7416 55.2546 19.6842 55.2201 19.6371C55.1856 19.5899 55.1362 19.5557 55.08 19.54H50.43C50.3958 19.5387 50.3618 19.5441 50.3297 19.5559C50.2977 19.5678 50.2682 19.5858 50.2432 19.609C50.2181 19.6323 50.1979 19.6602 50.1836 19.6912C50.1693 19.7223 50.1613 19.7559 50.16 19.79C50.1511 19.8534 50.1669 19.9178 50.2042 19.9699C50.2414 20.022 50.2971 20.0578 50.36 20.07H50.47C50.7017 20.1335 50.9109 20.261 51.0736 20.4378C51.2363 20.6147 51.346 20.8338 51.39 21.07V34.05V34.13C51.3875 34.418 51.2872 34.6967 51.1055 34.9202C50.9238 35.1437 50.6715 35.2988 50.39 35.36V35.36H50.29C50.2374 35.3793 50.1926 35.415 50.1619 35.4618C50.1313 35.5087 50.1166 35.5641 50.12 35.62C50.1226 35.6899 50.1522 35.756 50.2025 35.8045C50.2529 35.853 50.3201 35.8801 50.39 35.88H55.04C55.1099 35.8801 55.1771 35.853 55.2274 35.8045C55.2778 35.756 55.3075 35.6899 55.3101 35.62C55.3126 35.563 55.2976 35.5067 55.2672 35.4584C55.2368 35.4102 55.1925 35.3724 55.14 35.35H55.04C54.7577 35.2905 54.5044 35.1358 54.3224 34.912C54.1404 34.6881 54.0407 34.4085 54.04 34.12V28.46H63V34C63.0204 34.1921 62.9999 34.3864 62.9399 34.57C62.8636 34.7628 62.7421 34.9343 62.5854 35.0701C62.4288 35.2059 62.2417 35.3019 62.04 35.35H61.9301C61.8973 35.3631 61.8675 35.3827 61.8425 35.4076C61.8176 35.4325 61.798 35.4622 61.7849 35.495C61.7718 35.5277 61.7655 35.5628 61.7664 35.598C61.7672 35.6333 61.7753 35.668 61.79 35.7C61.8122 35.7498 61.8489 35.7917 61.8953 35.8203C61.9417 35.8488 61.9956 35.8627 62.05 35.86H66.6999C66.7354 35.8613 66.7708 35.8557 66.8041 35.8433C66.8373 35.831 66.8679 35.8122 66.8939 35.7881C66.9199 35.7639 66.9409 35.7349 66.9557 35.7026C66.9705 35.6703 66.9787 35.6355 66.98 35.6C66.982 35.547 66.9678 35.4946 66.9392 35.4499C66.9106 35.4052 66.8689 35.3704 66.8199 35.35H66.67C66.3877 35.2905 66.1344 35.1358 65.9524 34.912C65.7704 34.6881 65.6707 34.4085 65.67 34.12L65.73 21.32Z" fill="#BABABA"/>
<path d="M58.3101 45.27V47.41H57.4301V42.35H58.3101V44.45H60.72V42.35H61.61V47.41H60.72V45.27H58.3101Z" fill="#999999"/>
<path d="M68 47.49C67.4846 47.488 66.9814 47.3335 66.5537 47.046C66.126 46.7584 65.7931 46.3507 65.5968 45.8742C65.4005 45.3977 65.3496 44.8737 65.4507 44.3684C65.5517 43.863 65.8 43.3989 66.1644 43.0345C66.5288 42.6701 66.993 42.4217 67.4984 42.3207C68.0038 42.2196 68.5276 42.2705 69.0041 42.4668C69.4806 42.6631 69.8885 42.9961 70.176 43.4237C70.4636 43.8514 70.618 44.3547 70.62 44.87C70.6334 45.55 70.3767 46.2075 69.9062 46.6986C69.4358 47.1897 68.7899 47.4743 68.11 47.49H67.9599H68ZM67.9599 43.08C67.735 43.08 67.5124 43.1246 67.3048 43.2113C67.0972 43.298 66.9088 43.425 66.7507 43.585C66.5926 43.745 66.4679 43.9347 66.3837 44.1433C66.2994 44.3519 66.2573 44.5751 66.26 44.8V44.87C66.241 45.3299 66.405 45.7786 66.7162 46.1179C67.0273 46.4571 67.4602 46.6592 67.92 46.68H67.98C68.4344 46.6774 68.8694 46.495 69.1898 46.1727C69.5102 45.8504 69.6899 45.4144 69.6899 44.96V44.89C69.7062 44.4291 69.54 43.9805 69.2273 43.6415C68.9146 43.3026 68.4807 43.1008 68.02 43.08H67.9599Z" fill="#999999"/>
<path d="M76.1 47.41H75.21V43.17H73.6V42.35H77.7V43.17H76.1V47.41Z" fill="#999999"/>
<path d="M85.27 43.15H82.42V44.46H84.95V45.25H82.42V46.61H85.3101V47.41H81.53V42.35H85.27V43.15Z" fill="#999999"/>
<path d="M89.75 42.35H90.63V46.6H93.29V47.41H89.75V42.35Z" fill="#999999"/>
<path d="M98.28 44.48C99.35 44.74 99.9 45.12 99.9 45.96C99.8849 46.1804 99.8261 46.3956 99.7272 46.5932C99.6282 46.7907 99.491 46.9667 99.3236 47.1109C99.1562 47.255 98.9619 47.3645 98.7518 47.4331C98.5418 47.5016 98.3202 47.5277 98.1 47.51C97.3246 47.5291 96.5708 47.254 95.99 46.74L96.52 46.1C96.9465 46.5208 97.5209 46.7578 98.12 46.76C98.2205 46.7771 98.3235 46.7741 98.4229 46.7511C98.5222 46.7281 98.6161 46.6856 98.6989 46.6261C98.7817 46.5665 98.8517 46.4911 98.9052 46.4043C98.9586 46.3174 98.9942 46.2208 99.01 46.12V46.12C99.01 45.75 98.81 45.55 97.87 45.34C96.93 45.13 96.1899 44.76 96.1899 43.79C96.1989 43.5864 96.248 43.3865 96.3344 43.2019C96.4207 43.0173 96.5425 42.8515 96.693 42.714C96.8435 42.5765 97.0196 42.4701 97.2113 42.4008C97.403 42.3314 97.6065 42.3006 97.8101 42.31H97.91C98.5774 42.295 99.2274 42.5224 99.74 42.95L99.28 43.57C98.887 43.2543 98.4036 43.0722 97.9 43.05C97.81 43.0327 97.7174 43.0335 97.6277 43.0524C97.538 43.0713 97.453 43.1079 97.3776 43.1601C97.3022 43.2122 97.2378 43.2788 97.1885 43.3561C97.1391 43.4334 97.1056 43.5197 97.09 43.61C97.09 43.61 97.09 43.61 97.09 43.61C97.09 44 97.32 44.18 98.29 44.38" fill="#999999"/>
</svg>
