<svg width="133" height="61" viewBox="0 0 133 61" fill="none" xmlns="http://www.w3.org/2000/svg">
<path d="M36 19.62V41.78L37.73 42.12V43.51H29.25V42.12L30.98 41.78V31.78H20.1V41.78L21.83 42.12V43.51H13.35V42.12L15.08 41.78V19.62L13.35 19.1V17.89H21.83V19.27L20.1 19.62V29H31V19.62L29.27 19.1V17.89H37.75V19.27L36 19.62ZM41.54 26.37L43.09 26.72V42.12L41.54 42.3V43.51H49.54V42.3L48.15 42.12V25.33H41.58L41.54 26.37ZM45.71 16.77C45.1198 16.7339 44.5324 16.876 44.0239 17.1779C43.5155 17.4798 43.1095 17.9276 42.8586 18.463C42.6078 18.9985 42.5236 19.597 42.6171 20.1809C42.7106 20.7648 42.9774 21.3071 43.3829 21.7375C43.7884 22.1679 44.3139 22.4664 44.8912 22.5945C45.4685 22.7226 46.0709 22.6742 46.6203 22.4556C47.1697 22.2371 47.6409 21.8584 47.9725 21.3689C48.3041 20.8793 48.4809 20.3013 48.48 19.71C48.5017 18.9581 48.2263 18.2279 47.7134 17.6776C47.2006 17.1273 46.4916 16.8013 45.74 16.77H45.71ZM53.09 18.35L54.52 18.58V42L53.09 42.26V43.47H61V42.3L59.4 42.12V17.2H53.08L53.09 18.35ZM73.48 41.56C71.57 41.56 70.62 40.39 70.62 38.49V27.11H74.86V25.33H70.62V20.14L66 21.52V25.33H62.6V27.11H66V39.83C66 42.43 67.35 43.83 70.29 43.83C72.3552 43.7392 74.3874 43.2786 76.29 42.47V41.34C75.3744 41.5166 74.442 41.5904 73.51 41.56H73.48ZM96.25 34.51C96.25 38.57 93.95 44.17 86.44 44.17C80.9 44.17 77 41.47 77 34.93C77 30.7 78.88 24.81 86.64 24.81C94.4 24.81 96.28 30.21 96.28 34.51H96.25ZM90.99 34.51C90.99 30.29 89.91 26.28 86.63 26.28C83.35 26.28 82.15 29.69 82.15 34.73C82.15 37.94 82.92 42.73 86.63 42.73C90.34 42.73 91 38 91 34.49L90.99 34.51ZM98.92 26.51L100.63 26.71V42L98.92 42.34V43.57H107.06V42.37L105.29 42.09V29.19C105.775 28.669 106.366 28.2576 107.023 27.9834C107.68 27.7092 108.388 27.5785 109.1 27.6C111.6 27.6 112.23 29.6 112.23 31.52V42.16L110.72 42.35V43.61H118.57V42.33L117.04 42.1V30.7C117.04 28.2 115.9 24.95 111.95 24.95C109.47 25.0255 107.107 26.0198 105.32 27.74V25.27H99L98.92 26.51ZM129.5 7.16V54.39H2.56V7.16H129.5ZM127.29 9.39H4.69V52.18H127.29V9.39Z" fill="#858585"/>
</svg>
