<svg width="171" height="61" viewBox="0 0 171 61" fill="none" xmlns="http://www.w3.org/2000/svg">
<path d="M33.97 45.43H35.1V48.1H38.16V45.43H39.28V51.84H38.16V49.14H35.1V51.84H33.97V45.43Z" fill="#A3A3A3"/>
<path d="M51.41 46.47H49.37V45.43H54.57V46.47H52.54V51.84H51.41V46.47Z" fill="#A3A3A3"/>
<path d="M56.5 45.43H61.25V46.44H57.62V48.1H60.84V49.11H57.62V50.83H61.29V51.84H56.5V45.43Z" fill="#A3A3A3"/>
<path d="M63.36 45.43H64.49V50.81H67.86V51.84H63.36V45.43Z" fill="#A3A3A3"/>
<path d="M69.33 50.91L70.01 50.1C70.5501 50.616 71.2633 50.912 72.01 50.93C72.71 50.93 73.15 50.6 73.15 50.13C73.15 49.67 72.89 49.43 71.7 49.13C70.34 48.8 69.57 48.4 69.57 47.22C69.5875 46.9525 69.6586 46.6913 69.779 46.4519C69.8994 46.2124 70.0668 45.9997 70.2711 45.8261C70.4753 45.6526 70.7124 45.522 70.9682 45.4419C71.224 45.3618 71.4933 45.334 71.76 45.36C72.6058 45.3407 73.43 45.6285 74.08 46.17L73.48 47.02C72.9879 46.6155 72.3766 46.3836 71.74 46.36C71.08 46.36 70.69 46.7 70.69 47.12C70.69 47.61 70.99 47.83 72.22 48.12C73.45 48.41 74.27 48.94 74.27 50C74.27 51.2 73.33 51.91 71.99 51.91C71.0039 51.9184 70.0495 51.5623 69.31 50.91" fill="#A3A3A3"/>
<path d="M83.42 51.1C83.1578 51.3633 82.8461 51.5722 82.5028 51.7146C82.1596 51.8571 81.7916 51.9303 81.42 51.93C81.1602 51.9593 80.8972 51.934 80.6477 51.8559C80.3983 51.7778 80.1678 51.6485 79.9711 51.4762C79.7745 51.304 79.6159 51.0927 79.5055 50.8557C79.3951 50.6188 79.3353 50.3614 79.33 50.1V50.1C79.3383 49.6962 79.4744 49.3054 79.7188 48.9837C79.9631 48.6621 80.3032 48.4262 80.69 48.31C80.3796 47.9434 80.2064 47.4803 80.2 47V47C80.1994 46.7689 80.2465 46.5402 80.3383 46.3281C80.4302 46.1161 80.5648 45.9252 80.7337 45.7675C80.9026 45.6099 81.1023 45.4887 81.3202 45.4117C81.5381 45.3347 81.7695 45.3035 82 45.32C82.2149 45.3036 82.4308 45.3313 82.6345 45.4015C82.8383 45.4716 83.0255 45.5827 83.1847 45.7279C83.344 45.8731 83.4718 46.0493 83.5604 46.2457C83.649 46.4421 83.6965 46.6546 83.7 46.87V46.87C83.7 47.71 83.14 48.21 82.29 48.53L83.39 49.65C83.6519 49.2553 83.8826 48.8407 84.08 48.41L84.93 48.86C84.684 49.3716 84.3929 49.8602 84.06 50.32L85.06 51.32L84.21 51.93L83.42 51.1ZM82.78 50.44L81.35 49C81.1163 49.0707 80.9097 49.211 80.7578 49.4022C80.6059 49.5934 80.516 49.8264 80.5 50.07V50.07C80.5076 50.2023 80.5414 50.3318 80.5995 50.4509C80.6576 50.57 80.7388 50.6764 80.8383 50.7638C80.9379 50.8513 81.0539 50.9181 81.1795 50.9604C81.3051 51.0026 81.4378 51.0195 81.57 51.01C82.0314 50.9903 82.4664 50.789 82.78 50.45V50.44ZM82.78 46.96C82.7843 46.8643 82.7686 46.7688 82.7339 46.6795C82.6992 46.5902 82.6463 46.5092 82.5786 46.4414C82.5109 46.3737 82.4298 46.3208 82.3405 46.2861C82.2512 46.2515 82.1557 46.2357 82.06 46.24C81.9574 46.2342 81.8547 46.2502 81.7586 46.2868C81.6626 46.3235 81.5753 46.38 81.5027 46.4527C81.43 46.5254 81.3734 46.6126 81.3368 46.7086C81.3001 46.8047 81.2842 46.9074 81.29 47.01V47.01C81.2965 47.2018 81.3435 47.3901 81.4279 47.5625C81.5124 47.7348 81.6324 47.8873 81.78 48.01C82.44 47.77 82.78 47.47 82.78 47.01" fill="#A3A3A3"/>
<path d="M90.42 45.43H93.27C93.9466 45.3931 94.6108 45.6229 95.12 46.07C95.4719 46.442 95.6624 46.9381 95.65 47.45V47.45C95.665 47.8989 95.5221 48.3389 95.2462 48.6934C94.9703 49.0478 94.5789 49.2943 94.14 49.39L95.87 51.82H94.53L93 49.61H91.59V51.84H90.47L90.42 45.43ZM93.19 48.61C94 48.61 94.51 48.19 94.51 47.54C94.51 46.85 94.02 46.48 93.18 46.48H91.54V48.63L93.19 48.61Z" fill="#A3A3A3"/>
<path d="M97.77 45.43H102.52V46.44H98.9V48.1H102.11V49.11H98.9V50.83H102.57V51.84H97.77V45.43Z" fill="#A3A3A3"/>
<path d="M104.2 50.91L104.88 50.1C105.42 50.616 106.133 50.912 106.88 50.93C107.57 50.93 108.01 50.6 108.01 50.13C108.01 49.67 107.75 49.43 106.56 49.13C105.2 48.8 104.43 48.4 104.43 47.22C104.447 46.9525 104.519 46.6913 104.639 46.4519C104.759 46.2124 104.927 45.9997 105.131 45.8261C105.335 45.6526 105.572 45.522 105.828 45.4419C106.084 45.3618 106.353 45.334 106.62 45.36C107.469 45.341 108.296 45.6286 108.95 46.17L108.34 47.02C107.848 46.6155 107.237 46.3836 106.6 46.36C105.94 46.36 105.6 46.7 105.6 47.12C105.6 47.61 105.89 47.83 107.13 48.12C108.37 48.41 109.18 48.94 109.18 50C109.18 51.2 108.23 51.91 106.89 51.91C105.904 51.9184 104.95 51.5623 104.21 50.91" fill="#A3A3A3"/>
<path d="M119.74 45.43H122.6C123.277 45.3942 123.94 45.6238 124.45 46.07C124.802 46.442 124.992 46.9381 124.98 47.45V47.45C124.995 47.9003 124.85 48.3414 124.572 48.6961C124.294 49.0507 123.901 49.2964 123.46 49.39L125.19 51.82H123.85L122.28 49.59H120.87V51.82H119.74V45.43ZM122.52 48.61C123.32 48.61 123.83 48.19 123.83 47.54C123.83 46.85 123.34 46.48 122.51 46.48H120.87V48.63L122.52 48.61Z" fill="#A3A3A3"/>
<path d="M128.64 46.47H126.61V45.43H131.81V46.47H129.78V51.84H128.64V46.47Z" fill="#A3A3A3"/>
<path d="M133.16 50.91L133.84 50.1C134.38 50.616 135.093 50.912 135.84 50.93C136.54 50.93 136.98 50.6 136.98 50.13C136.98 49.67 136.72 49.43 135.53 49.13C134.17 48.8 133.4 48.4 133.4 47.22C133.417 46.9525 133.489 46.6913 133.609 46.4519C133.729 46.2124 133.897 45.9997 134.101 45.8261C134.305 45.6526 134.542 45.522 134.798 45.4419C135.054 45.3618 135.323 45.334 135.59 45.36C136.436 45.3407 137.26 45.6285 137.91 46.17L137.31 47.02C136.818 46.6155 136.207 46.3836 135.57 46.36C134.91 46.36 134.57 46.7 134.57 47.12C134.57 47.61 134.86 47.83 136.1 48.12C137.34 48.41 138.15 48.94 138.15 50C138.15 51.2 137.2 51.91 135.86 51.91C134.874 51.9184 133.92 51.5623 133.18 50.91" fill="#A3A3A3"/>
<path d="M20.01 15.49H23.16L27.12 27.8L31.2 15.45H33.67L37.75 27.8L41.71 15.49H44.77L38.98 32.21H36.47L32.39 20.29L28.31 32.21H25.8L20.01 15.49Z" fill="#A3A3A3"/>
<path d="M52.17 25.55L45.58 15.49H49.01L53.66 22.85L58.36 15.49H61.7L55.11 25.48V32.09H52.17V25.55Z" fill="#A3A3A3"/>
<path d="M63.32 15.49H66.02L74.91 26.97V15.49H77.78V32.1H75.34L66.19 20.29V32.1H63.32V15.49Z" fill="#A3A3A3"/>
<path d="M81.58 15.49H87.77C92.99 15.49 96.59 19.08 96.59 23.75C96.59 28.42 92.99 32.05 87.77 32.05H81.58V15.49ZM87.77 29.44C88.5256 29.4895 89.2832 29.3799 89.9938 29.1181C90.7043 28.8564 91.352 28.4484 91.895 27.9205C92.4379 27.3927 92.8639 26.7567 93.1456 26.0538C93.4273 25.3509 93.5582 24.5967 93.53 23.84C93.5591 23.0808 93.4292 22.3239 93.1486 21.6179C92.868 20.9118 92.4428 20.2723 91.9004 19.7402C91.358 19.2082 90.7104 18.7955 89.9991 18.5285C89.2878 18.2615 88.5285 18.1462 87.77 18.19H84.5V29.44H87.77Z" fill="#A3A3A3"/>
<path d="M99.65 15.49H102.57V22.4H110.49V15.49H113.41V32.1H110.49V25.1H102.57V32.1H99.65V15.49Z" fill="#A3A3A3"/>
<path d="M123.09 15.38H125.79L133.09 32.1H130L128.32 28.1H120.47L118.76 32.1H115.76L123.09 15.38ZM127.26 25.5L124.39 18.86L121.54 25.5H127.26Z" fill="#A3A3A3"/>
<path d="M135 15.49H138.1L143.15 23.34L148.2 15.49H151.31V32.1H148.39V20.19L143.15 28.02H143.06L137.86 20.24V32.1H135V15.49Z" fill="#A3A3A3"/>
<path fill-rule="evenodd" clip-rule="evenodd" d="M3.44 41.81C3.44 41.81 25.79 34.81 85.54 34.81C145.72 34.81 167.96 41.74 167.96 41.74C167.96 41.74 140.75 37 85.54 37C30.33 37 3.44 41.8 3.44 41.8" fill="#A3A3A3"/>
<path d="M44.73 45.3C45.3878 45.304 46.0296 45.5026 46.5746 45.8709C47.1195 46.2392 47.5433 46.7606 47.7922 47.3695C48.0412 47.9783 48.1043 48.6472 47.9736 49.2918C47.8428 49.9365 47.5241 50.5279 47.0576 50.9916C46.5911 51.4554 45.9977 51.7705 45.3523 51.8974C44.7069 52.0243 44.0384 51.9572 43.4311 51.7046C42.8238 51.4519 42.3049 51.0251 41.9398 50.478C41.5748 49.9308 41.38 49.2878 41.38 48.63C41.3813 48.1914 41.469 47.7573 41.6381 47.3526C41.8071 46.9479 42.0542 46.5804 42.3653 46.2712C42.6764 45.962 43.0453 45.7171 43.4511 45.5504C43.8568 45.3838 44.2914 45.2987 44.73 45.3ZM42.56 48.66C42.5796 49.0844 42.7233 49.4937 42.9733 49.8371C43.2234 50.1806 43.5687 50.4431 43.9665 50.5921C44.3644 50.7411 44.7972 50.7701 45.2113 50.6754C45.6255 50.5807 46.0027 50.3666 46.2963 50.0595C46.5898 49.7524 46.7868 49.3659 46.8627 48.9479C46.9387 48.5299 46.8903 48.0988 46.7235 47.7081C46.5567 47.3174 46.2789 46.9842 45.9246 46.7499C45.5702 46.5156 45.1548 46.3905 44.73 46.39C44.4385 46.3965 44.151 46.4604 43.8842 46.578C43.6173 46.6956 43.3762 46.8646 43.1747 47.0754C42.9732 47.2862 42.8152 47.5347 42.7097 47.8065C42.6042 48.0784 42.5534 48.3684 42.56 48.66V48.66Z" fill="#A3A3A3"/>
<path d="M114.3 45.3C114.96 45.2941 115.607 45.4843 116.158 45.8466C116.71 46.2088 117.141 46.7268 117.398 47.3347C117.654 47.9427 117.725 48.6131 117.6 49.2611C117.475 49.909 117.16 50.5051 116.695 50.9739C116.231 51.4426 115.638 51.7627 114.991 51.8936C114.344 52.0246 113.673 51.9604 113.063 51.7093C112.452 51.4581 111.931 51.0314 111.563 50.4831C111.196 49.9349 111 49.2899 111 48.63C111.003 47.7528 111.35 46.9118 111.968 46.2887C112.585 45.6657 113.423 45.3105 114.3 45.3ZM112.13 48.66C112.15 49.0844 112.293 49.4937 112.543 49.8371C112.793 50.1806 113.139 50.4431 113.537 50.5921C113.934 50.7411 114.367 50.7701 114.781 50.6754C115.195 50.5807 115.573 50.3666 115.866 50.0595C116.16 49.7524 116.357 49.3659 116.433 48.9479C116.509 48.5299 116.46 48.0988 116.293 47.7081C116.127 47.3174 115.849 46.9842 115.495 46.7499C115.14 46.5156 114.725 46.3904 114.3 46.39C114.008 46.3965 113.721 46.4604 113.454 46.578C113.187 46.6956 112.946 46.8646 112.745 47.0754C112.543 47.2862 112.385 47.5347 112.28 47.8065C112.174 48.0784 112.123 48.3684 112.13 48.66V48.66Z" fill="#A3A3A3"/>
</svg>
