<svg width="125" height="61" viewBox="0 0 125 61" fill="none" xmlns="http://www.w3.org/2000/svg">
<path d="M70.67 8.62C70.4927 8.66762 70.3269 8.75064 70.1825 8.86407C70.0381 8.9775 69.9182 9.11899 69.83 9.28L67.4 13.11C67.1111 13.5352 66.726 13.8862 66.276 14.1347C65.826 14.3831 65.3237 14.522 64.81 14.54H63.58C63.58 14.54 61.9 14.54 62.79 13.11L64.7 10.05C64.9862 9.62448 65.3693 9.27296 65.8178 9.02436C66.2664 8.77576 66.7675 8.63718 67.28 8.62H70.67V8.62Z" fill="#7A7A7A"/>
<path d="M71 21.71C70.8151 21.6555 70.6428 21.5646 70.4935 21.4426C70.3441 21.3207 70.2205 21.1703 70.13 21L67.57 16.79C67.2877 16.3622 66.9071 16.0083 66.4599 15.7578C66.0128 15.5073 65.5122 15.3674 65 15.35H63.61C63.61 15.35 61.93 15.35 62.8 16.8L64.87 20.26C65.1502 20.6883 65.5288 21.0433 65.9741 21.2956C66.4194 21.5478 66.9186 21.6899 67.43 21.71H71V21.71Z" fill="#7A7A7A"/>
<path d="M53.21 8.64C53.3855 8.68882 53.5494 8.7724 53.692 8.88577C53.8346 8.99915 53.9529 9.14001 54.04 9.3L56.47 13.13C56.7601 13.554 57.1455 13.9042 57.5952 14.1526C58.045 14.4009 58.5466 14.5404 59.06 14.56H60.29C60.29 14.56 61.97 14.56 61.08 13.13L59.18 10.07C58.8927 9.64561 58.5093 9.29496 58.061 9.0465C57.6127 8.79804 57.1122 8.65877 56.6 8.64H53.21V8.64Z" fill="#7A7A7A"/>
<path d="M52.91 21.73C53.0939 21.6758 53.2649 21.585 53.4127 21.463C53.5605 21.3409 53.682 21.1903 53.77 21.02L56.33 16.81C56.6123 16.3822 56.993 16.0283 57.4401 15.7778C57.8872 15.5273 58.3878 15.3874 58.9 15.37H60.28C60.28 15.37 61.96 15.37 61.09 16.82L59 20.28C58.7205 20.7082 58.3419 21.0626 57.8962 21.3133C57.4506 21.564 56.9511 21.7035 56.44 21.72H52.91V21.73Z" fill="#7A7A7A"/>
<path d="M62 10.19C62.7606 10.1361 63.4694 9.78468 63.9729 9.21197C64.4763 8.63925 64.734 7.89128 64.69 7.13C64.7424 6.74667 64.7122 6.35655 64.6012 5.98588C64.4903 5.61521 64.3013 5.27259 64.047 4.98106C63.7926 4.68953 63.4787 4.45584 63.1265 4.29572C62.7743 4.1356 62.3919 4.05275 62.005 4.05275C61.6181 4.05275 61.2357 4.1356 60.8834 4.29572C60.5312 4.45584 60.2174 4.68953 59.963 4.98106C59.7086 5.27259 59.5196 5.61521 59.4087 5.98588C59.2978 6.35655 59.2676 6.74667 59.32 7.13C59.2733 7.8903 59.5286 8.63831 60.0305 9.21134C60.5323 9.78437 61.2402 10.1361 62 10.19" fill="#C2C2C2"/>
<path d="M62 26.13C62.6207 26.2113 63.2515 26.1015 63.8082 25.8153C64.3649 25.5291 64.8212 25.0801 65.1163 24.528C65.4114 23.9759 65.5313 23.347 65.46 22.7251C65.3886 22.1032 65.1295 21.5177 64.717 21.0468C64.3046 20.5759 63.7584 20.2418 63.1513 20.0891C62.5442 19.9364 61.905 19.9723 61.3189 20.1921C60.7327 20.4118 60.2274 20.8049 59.8703 21.3191C59.5132 21.8332 59.3213 22.444 59.32 23.07C59.2733 23.8303 59.5286 24.5783 60.0305 25.1513C60.5324 25.7244 61.2402 26.0761 62 26.13" fill="#C2C2C2"/>
<path d="M68.29 14.8C68.3852 15.543 68.7479 16.2257 69.3103 16.7206C69.8726 17.2154 70.5959 17.4884 71.345 17.4884C72.094 17.4884 72.8174 17.2154 73.3797 16.7206C73.942 16.2257 74.3047 15.543 74.4 14.8C74.3047 14.057 73.942 13.3743 73.3797 12.8794C72.8174 12.3846 72.094 12.1116 71.345 12.1116C70.5959 12.1116 69.8726 12.3846 69.3103 12.8794C68.7479 13.3743 68.3852 14.057 68.29 14.8" fill="#C2C2C2"/>
<path d="M49.58 14.88C49.6836 15.6179 50.0503 16.2935 50.6126 16.7824C51.1749 17.2712 51.8949 17.5405 52.64 17.5405C53.3851 17.5405 54.1051 17.2712 54.6674 16.7824C55.2297 16.2935 55.5964 15.6179 55.7 14.88C55.5964 14.1421 55.2297 13.4665 54.6674 12.9777C54.1051 12.4888 53.3851 12.2195 52.64 12.2195C51.8949 12.2195 51.1749 12.4888 50.6126 12.9777C50.0503 13.4665 49.6836 14.1421 49.58 14.88Z" fill="#C2C2C2"/>
<path d="M24.26 31.21C22.513 30.5059 20.6611 30.097 18.78 30C14.22 30 10 33.4 10 38.16C10 43.39 13.44 46.89 18.88 46.89C20.6522 46.8299 22.3939 46.4115 24 45.66L24.53 42.27L24 42.13C23.826 43.2439 23.2599 44.259 22.4036 44.9924C21.5474 45.7258 20.4574 46.1292 19.33 46.13C15.75 46.13 12.41 42.76 12.41 38.07C12.41 32.5 16.29 30.71 18.96 30.71C21.63 30.71 23.49 31.8 23.96 34.52H24.54L24.31 31.19L24.26 31.21ZM35 33.49H34.7C34.4343 33.8498 34.0694 34.1244 33.65 34.28C33.6934 34.4327 33.7103 34.5916 33.7 34.75C33.6538 35.3058 33.5258 35.8517 33.32 36.37L31 42.79C30.76 43.45 30.55 44.15 30.26 44.79C29.81 45.79 29.61 45.94 28.52 46.07V46.53H30.69H32.81V46.07H32.4C31.77 46.07 31.18 46.07 31.18 45.22C31.2507 44.4895 31.4119 43.7707 31.66 43.08L32.06 41.82H36.28L37.18 44.43C37.3109 44.7509 37.4016 45.0868 37.45 45.43C37.45 45.94 36.91 46.03 36.45 46.03H36.13V46.49C37.01 46.49 37.87 46.49 38.75 46.49H40.82V46.03C40.5664 46.0571 40.31 46.0272 40.0695 45.9424C39.829 45.8577 39.6105 45.7202 39.43 45.54C39.0332 44.6922 38.699 43.8166 38.43 42.92L35 33.49ZM34 35.81L36 41.1H32.3L34.04 35.81H34ZM49.31 40.61C50.5123 42.7026 51.8942 44.6867 53.44 46.54H54.97C55.42 46.54 55.87 46.54 56.32 46.54V46.08C55.9213 46.057 55.5333 45.9422 55.1864 45.7444C54.8394 45.5467 54.5429 45.2714 54.32 44.94C53.54 44.08 52.68 42.64 51.04 40.25C51.743 40.0873 52.3736 39.6993 52.8358 39.1451C53.2979 38.5909 53.5663 37.9008 53.6 37.18C53.6 35.9 52.84 33.99 49.44 33.99C48.29 33.99 47.66 33.99 47.03 33.99C46.15 33.99 45.29 33.99 44.3 33.99V34.46C45.3 34.46 45.94 34.46 45.94 35.76V44.87C45.94 45.87 45.2 46.13 44.3 46.08V46.54C45.2 46.54 46.04 46.54 46.91 46.54C47.78 46.54 48.47 46.54 49.34 46.54V46.08C48.34 46.08 47.7 46.08 47.7 44.78V40.61H49.31ZM51.7 37.28C51.6979 37.6644 51.6153 38.044 51.4575 38.3945C51.2997 38.745 51.0702 39.0585 50.7837 39.3148C50.4973 39.571 50.1603 39.7644 49.7945 39.8825C49.4287 40.0005 49.0422 40.0405 48.66 40C48.3245 40.0046 47.9893 39.9744 47.66 39.91V34.68C48.0154 34.6069 48.3772 34.5701 48.74 34.57C50.86 34.57 51.69 35.72 51.69 37.28H51.7ZM69.58 43.79L69.18 43.72C68.67 45.46 68 46 65.87 46C63.32 46 63.03 45.44 63.03 44.11V35.76C63.03 34.5 63.71 34.48 64.67 34.46V34C63.77 34 62.94 34 62.11 34C61.28 34 60.48 34 59.63 34V34.47C60.63 34.47 61.27 34.47 61.27 35.77V44.88C61.27 45.88 60.53 46.14 59.63 46.09V46.55C61.21 46.55 62.79 46.55 64.39 46.55C65.99 46.55 67.39 46.55 68.96 46.55L69.63 43.8L69.58 43.79ZM73.26 46.2C74.1248 46.6012 75.0666 46.8093 76.02 46.81C78.14 46.81 80.24 45.5 80.24 43.16C80.24 39.03 74.7 39.94 74.7 36.6C74.673 36.3031 74.7093 36.0039 74.8064 35.722C74.9035 35.4401 75.0592 35.182 75.2633 34.9647C75.4674 34.7474 75.7152 34.5758 75.9904 34.4612C76.2656 34.3467 76.562 34.2917 76.86 34.3C77.432 34.2613 77.9962 34.4495 78.4305 34.8239C78.8647 35.1982 79.134 35.7285 79.18 36.3H79.6L79.31 34C78.5878 33.8553 77.8557 33.7651 77.12 33.73C74.92 33.73 73.27 34.94 73.27 37.26C73.27 41.5 78.59 40.51 78.59 43.86C78.5958 44.1814 78.5356 44.5006 78.4132 44.7979C78.2907 45.0951 78.1085 45.3641 77.8779 45.5881C77.6473 45.8121 77.3733 45.9865 77.0726 46.1003C76.7719 46.2142 76.4511 46.2651 76.13 46.25C75.43 46.1892 74.7712 45.8932 74.261 45.4102C73.7507 44.9272 73.419 44.2856 73.32 43.59H73L73.36 46.21L73.26 46.2ZM84.81 40.34C84.8434 41.6071 85.2494 42.8362 85.9773 43.8739C86.7051 44.9115 87.7226 45.7118 88.9026 46.1746C90.0826 46.6374 91.3728 46.7423 92.612 46.4762C93.8512 46.2101 94.9846 45.5847 95.8706 44.6782C96.7565 43.7718 97.3557 42.6244 97.5934 41.3793C97.831 40.1343 97.6966 38.8469 97.2068 37.6778C96.7171 36.5087 95.8938 35.5099 94.8397 34.806C93.7856 34.1021 92.5475 33.7244 91.28 33.72C90.4191 33.7252 89.5678 33.901 88.7754 34.2374C87.9829 34.5738 87.2651 35.064 86.6634 35.6797C86.0616 36.2953 85.588 37.0242 85.2699 37.8242C84.9518 38.6241 84.7954 39.4792 84.81 40.34V40.34ZM86.81 39.82C86.81 36.56 88.46 34.3 91.09 34.3C94.16 34.3 95.74 37.98 95.74 40.72C95.74 43.97 94.09 46.24 91.46 46.24C88.39 46.24 86.81 42.55 86.81 39.82V39.82ZM114.66 36.31C114.66 34.55 115.25 34.46 116.35 34.46V34C115.65 34 114.96 34 114.26 34C113.56 34 112.59 34 111.76 34V34.47C113.56 34.47 113.94 34.99 113.94 36.65V43.8C112.72 42.47 111.03 40.69 109.5 39C107.45 36.74 105.78 35.1 105.04 34C104.55 34 104.04 34 103.56 34C103.08 34 102.47 34 101.91 34V34.47C103.46 34.47 104.12 35.03 104.12 36.57V43.8C104.12 46.09 103.3 46.09 102.2 46.09V46.55H104.59H106.98V46.09C105.04 46.09 104.84 45.58 104.84 43.09V36.38L114.25 46.71H114.66V36.31V36.31Z" fill="#B9B9B9"/>
</svg>
