<svg width="125" height="61" viewBox="0 0 125 61" fill="none" xmlns="http://www.w3.org/2000/svg">
<path d="M30.93 16.32H24.19V47.14H30.93V16.32ZM36.21 47.14H43V34.86H56.29V47.14H63V16.32H56.26V28.6H43V16.32H36.26L36.21 47.14ZM90.21 25.21L94.87 20.86C93.4614 19.1812 91.6763 17.8586 89.66 17C87.2906 16.0058 84.732 15.5433 82.1645 15.6452C79.597 15.7472 77.0831 16.411 74.8 17.59C72.4007 18.8823 70.4094 20.8181 69.05 23.18C67.6005 25.7814 66.872 28.7228 66.94 31.7C66.8991 34.5684 67.5872 37.4003 68.94 39.93C70.2365 42.3344 72.1888 44.3214 74.57 45.66C77.1173 47.0906 79.9989 47.8188 82.92 47.77C85.6757 47.8075 88.3952 47.1397 90.82 45.83C93.1692 44.5582 95.1211 42.6616 96.46 40.35C97.8887 37.8391 98.6109 34.9883 98.55 32.1C98.5404 30.9147 98.4199 29.7329 98.19 28.57H82.19V34.83H91.19C91.1291 35.7524 90.8697 36.6507 90.4296 37.4636C89.9895 38.2765 89.3791 38.9848 88.64 39.54C87.1653 40.6119 85.4173 41.2445 83.5982 41.3648C81.7791 41.4852 79.963 41.0883 78.36 40.22C77.0073 39.4173 75.9086 38.2492 75.19 36.85C74.3781 35.2672 73.9694 33.5086 74 31.73C73.9698 30.0024 74.3395 28.2912 75.08 26.73C75.7735 25.317 76.8514 24.1282 78.19 23.3C79.5994 22.4329 81.2253 21.9822 82.88 22C84.2473 22.0203 85.5971 22.3109 86.8516 22.8549C88.1062 23.399 89.2407 24.1857 90.19 25.17L90.21 25.21ZM105.19 20.02C105.192 20.6347 105.012 21.2361 104.672 21.7484C104.332 22.2607 103.849 22.6609 103.282 22.8984C102.715 23.1359 102.09 23.2001 101.487 23.0828C100.883 22.9656 100.328 22.6721 99.8915 22.2396C99.4548 21.8071 99.156 21.2548 99.033 20.6526C98.9099 20.0504 98.968 19.4252 99.2001 18.856C99.4321 18.2868 99.8276 17.7991 100.337 17.4545C100.846 17.11 101.445 16.924 102.06 16.92V16.92C102.868 16.9119 103.648 17.2219 104.229 17.7831C104.811 18.3444 105.149 19.1119 105.17 19.92V20L105.19 20.02ZM104.61 20C104.622 19.3237 104.365 18.6704 103.895 18.1837C103.425 17.697 102.781 17.4169 102.105 17.405C101.429 17.3931 100.775 17.6503 100.289 18.1201C99.802 18.5898 99.5219 19.2337 99.51 19.91V20.01C99.5061 20.3449 99.5681 20.6772 99.6926 20.9881C99.8171 21.299 100.002 21.5823 100.236 21.8219C100.47 22.0615 100.749 22.2526 101.056 22.3844C101.364 22.5162 101.695 22.5861 102.03 22.59C102.365 22.5939 102.697 22.5319 103.008 22.4074C103.319 22.2829 103.602 22.0983 103.842 21.8643C104.081 21.6303 104.273 21.3514 104.404 21.0436C104.536 20.7357 104.606 20.4049 104.61 20.07V20ZM103.43 21.49H102.73L102 20.36H101.68V21.55H101V18.49H102.08C102.8 18.49 103.26 18.78 103.26 19.41C103.269 19.5991 103.211 19.7853 103.095 19.9355C102.98 20.0856 102.815 20.19 102.63 20.23L103.43 21.49ZM102.59 19.38C102.59 19.06 102.39 18.95 102.06 18.95H101.67V19.84H102.06C102.41 19.84 102.59 19.69 102.59 19.39V19.38Z" fill="#A3A3A3"/>
</svg>
